G04 Layer: TopLayer*
G04 EasyEDA Pro v3.2.148, 2026-08-31 06:39:05*
G04 Gerber Generator version 0.3*
G04 Scale: 100 percent, Rotated: No, Reflected: No*
G04 Dimensions in millimeters*
G04 Leading zeros omitted, absolute positions, 4 integers and 5 decimals*
G04 Generated by one-click*
G04 Object Configs: Pad,Via,Track,Text,Image,Dimension,BoardOutline,BoardCutout,CopperFilled,SolidRegion,FPCStiffener,Line,PlaneZone,ComponentProperty,ComponentSilkscreen,TearDrop*
G04 Layer Configs: 1,2,3,4,5,6,7,8,9,10,11,13,14,56*
G04 Copper Areas: 0*
%FSLAX45Y45*%
%MOMM*%
%ADD10C,0.508*%
%ADD11R,0.5X0.54*%
%ADD12R,1.8X1.8*%
%ADD13C,1.8*%
%ADD14R,0.8X0.8*%
%ADD15R,0.80648X0.86401*%
%ADD16O,1.8X0.58801*%
%ADD17R,1.27X0.635*%
%ADD18C,0.6197*%
%ADD19C,0.61*%
%ADD20C,0.254*%
G75*


G04 PolygonModel Start*
G54D10*
G01X2266594Y-1092200D02*
G01X2425700Y-1092200D01*

G04 TearDrop Start*
G36*
G01X1911706Y-952500D02*
G01X1911706Y-901700D01*
G03X1939588Y-900100I0J243725D01*
G01X1939588Y-954100D01*
G03X1911706Y-952500I-27883J-242124D01*
G37*
G36*
G01X2149812Y-901700D02*
G01X2149812Y-952500D01*
G03X2073612Y-954100I-0J-1815062D01*
G01X2073612Y-900100D01*
G03X2149812Y-901700I76200J1813462D01*
G37*
G36*
G01X1079500Y-1545707D02*
G01X1130300Y-1545707D01*
G03X1168400Y-1621907I95250J0D01*
G01X1041400Y-1621907D01*
G03X1079500Y-1545707I-57150J76200D01*
G37*
G36*
G01X1282700Y-1639537D02*
G01X1308100Y-1639537D01*
G01X1308591Y-1640501D01*
G01X1309991Y-1640820D01*
G01X1315075Y-1639839D01*
G01X1322468Y-1637232D01*
G01X1331285Y-1633632D01*
G01X1349658Y-1625999D01*
G01X1357445Y-1623238D01*
G01X1363120Y-1622027D01*
G01X1279176Y-1727755D01*
G01X1278435Y-1720421D01*
G01X1278415Y-1711600D01*
G01X1279772Y-1690360D01*
G01X1281712Y-1665763D01*
G01X1282421Y-1652746D01*
G01X1282700Y-1639537D01*
G37*
G36*
G01X1542023Y-1644859D02*
G01X1567423Y-1644859D01*
G01X1567914Y-1646112D01*
G01X1569315Y-1646502D01*
G01X1571517Y-1646136D01*
G01X1574408Y-1645124D01*
G01X1581822Y-1641591D01*
G01X1590678Y-1636770D01*
G01X1609200Y-1626724D01*
G01X1617109Y-1623232D01*
G01X1620341Y-1622247D01*
G01X1622944Y-1621914D01*
G01X1532330Y-1721936D01*
G01X1532250Y-1715456D01*
G01X1533115Y-1707715D01*
G01X1536527Y-1689169D01*
G01X1538499Y-1678725D01*
G01X1540265Y-1667738D01*
G01X1541535Y-1656390D01*
G01X1542023Y-1644859D01*
G37*
G36*
G01X1747588Y-1630448D02*
G01X1765907Y-1608107D01*
G01X1767513Y-1611407D01*
G01X1769924Y-1614466D01*
G01X1773079Y-1617269D01*
G01X1776912Y-1619805D01*
G01X1781361Y-1622062D01*
G01X1786361Y-1624026D01*
G01X1791850Y-1625687D01*
G01X1797762Y-1627031D01*
G01X1810608Y-1628719D01*
G01X1824388Y-1628994D01*
G01X1831470Y-1628570D01*
G01X1838596Y-1627756D01*
G01X1845700Y-1626540D01*
G01X1852720Y-1624908D01*
G01X1792335Y-1745650D01*
G01X1784369Y-1724268D01*
G01X1774312Y-1696216D01*
G01X1762081Y-1664081D01*
G01X1755123Y-1647290D01*
G01X1747588Y-1630448D01*
G37*
G36*
G01X2247544Y-1617924D02*
G01X2264428Y-1642606D01*
G01X2247741Y-1675758D01*
G01X2232536Y-1707039D01*
G01X2219412Y-1734117D01*
G01X2208965Y-1754663D01*
G01X2162292Y-1627988D01*
G01X2169078Y-1630371D01*
G01X2175961Y-1632317D01*
G01X2182878Y-1633835D01*
G01X2189768Y-1634932D01*
G01X2196568Y-1635615D01*
G01X2203214Y-1635892D01*
G01X2209646Y-1635769D01*
G01X2215799Y-1635255D01*
G01X2221613Y-1634356D01*
G01X2227025Y-1633081D01*
G01X2231971Y-1631436D01*
G01X2236390Y-1629428D01*
G01X2240219Y-1627066D01*
G01X2243396Y-1624356D01*
G01X2245859Y-1621306D01*
G01X2247544Y-1617924D01*
G37*
G36*
G01X2495963Y-1611158D02*
G01X2514015Y-1634260D01*
G01X2506288Y-1651173D01*
G01X2498994Y-1667967D01*
G01X2485811Y-1699961D01*
G01X2474677Y-1727773D01*
G01X2465802Y-1748930D01*
G01X2410249Y-1625890D01*
G01X2417175Y-1627786D01*
G01X2424185Y-1629257D01*
G01X2431216Y-1630312D01*
G01X2438205Y-1630963D01*
G01X2445090Y-1631220D01*
G01X2451807Y-1631094D01*
G01X2458294Y-1630597D01*
G01X2464488Y-1629738D01*
G01X2470327Y-1628529D01*
G01X2475747Y-1626980D01*
G01X2480685Y-1625102D01*
G01X2485080Y-1622906D01*
G01X2488868Y-1620403D01*
G01X2491986Y-1617604D01*
G01X2494372Y-1614518D01*
G01X2495963Y-1611158D01*
G37*
G36*
G01X2628900Y-1586558D02*
G01X2654300Y-1592304D01*
G01X2654786Y-1597023D01*
G01X2656170Y-1601719D01*
G01X2658341Y-1606375D01*
G01X2661189Y-1610972D01*
G01X2664602Y-1615495D01*
G01X2668469Y-1619925D01*
G01X2677124Y-1628437D01*
G01X2686266Y-1636370D01*
G01X2695008Y-1643584D01*
G01X2702462Y-1649942D01*
G01X2707742Y-1655304D01*
G01X2572865Y-1649558D01*
G01X2593440Y-1627738D01*
G01X2611389Y-1607996D01*
G01X2624084Y-1593285D01*
G01X2627641Y-1588739D01*
G01X2628900Y-1586558D01*
G37*
G36*
G01X1233099Y-1348105D02*
G01X1207699Y-1348105D01*
G03X1188649Y-1310005I-47625J0D01*
G01X1252149Y-1310005D01*
G03X1233099Y-1348105I28575J-38100D01*
G37*
G36*
G01X1357711Y-1191905D02*
G01X1383111Y-1191905D01*
G03X1402161Y-1230005I47625J0D01*
G01X1338661Y-1230005D01*
G03X1357711Y-1191905I-28575J38100D01*
G37*
G36*
G01X1435100Y-1485900D02*
G01X1435100Y-1511300D01*
G03X1411060Y-1530350I0J-24693D01*
G01X1411060Y-1466850D01*
G03X1435100Y-1485900I24040J5643D01*
G37*
G36*
G01X1207699Y-1417300D02*
G01X1233099Y-1417300D01*
G03X1252149Y-1455400I47625J0D01*
G01X1188649Y-1455400D01*
G03X1207699Y-1417300I-28575J38100D01*
G37*
G36*
G01X2279294Y-1540700D02*
G01X2253894Y-1540700D01*
G01X2253466Y-1533594D01*
G01X2252257Y-1526711D01*
G01X2250378Y-1520274D01*
G01X2247941Y-1514507D01*
G01X2245058Y-1509633D01*
G01X2241839Y-1505875D01*
G01X2238398Y-1503456D01*
G01X2236628Y-1502819D01*
G01X2234844Y-1502600D01*
G01X2298344Y-1502600D01*
G01X2296561Y-1502819D01*
G01X2294791Y-1503456D01*
G01X2291349Y-1505875D01*
G01X2288131Y-1509633D01*
G01X2285248Y-1514507D01*
G01X2282811Y-1520274D01*
G01X2280931Y-1526711D01*
G01X2279722Y-1533594D01*
G01X2279294Y-1540700D01*
G37*
G36*
G01X2362200Y-1333500D02*
G01X2362200Y-1358900D01*
G01X2356994Y-1359618D01*
G01X2351914Y-1361509D01*
G01X2347016Y-1364184D01*
G01X2342355Y-1367250D01*
G01X2333967Y-1372991D01*
G01X2330351Y-1374883D01*
G01X2327194Y-1375600D01*
G01X2327194Y-1316799D01*
G01X2330351Y-1317517D01*
G01X2333967Y-1319409D01*
G01X2342355Y-1325150D01*
G01X2347016Y-1328216D01*
G01X2351914Y-1330891D01*
G01X2356994Y-1332782D01*
G01X2362200Y-1333500D01*
G37*
G36*
G01X2365294Y-1206500D02*
G01X2365294Y-1231900D01*
G01X2359622Y-1232618D01*
G01X2354081Y-1234509D01*
G01X2348735Y-1237184D01*
G01X2343649Y-1240250D01*
G01X2334514Y-1245991D01*
G01X2330595Y-1247883D01*
G01X2327194Y-1248600D01*
G01X2327194Y-1189799D01*
G01X2330595Y-1190517D01*
G01X2334514Y-1192409D01*
G01X2343649Y-1198150D01*
G01X2348735Y-1201216D01*
G01X2354081Y-1203891D01*
G01X2359622Y-1205782D01*
G01X2365294Y-1206500D01*
G37*
G36*
G01X1759306Y-1540700D02*
G01X1733906Y-1540700D01*
G01X1733478Y-1533594D01*
G01X1732269Y-1526711D01*
G01X1730389Y-1520274D01*
G01X1727953Y-1514507D01*
G01X1725069Y-1509633D01*
G01X1721851Y-1505875D01*
G01X1718409Y-1503456D01*
G01X1716639Y-1502819D01*
G01X1714856Y-1502600D01*
G01X1778356Y-1502600D01*
G01X1776572Y-1502819D01*
G01X1774802Y-1503456D01*
G01X1771361Y-1505875D01*
G01X1768142Y-1509633D01*
G01X1765259Y-1514507D01*
G01X1762822Y-1520274D01*
G01X1760943Y-1526711D01*
G01X1759734Y-1533594D01*
G01X1759306Y-1540700D01*
G37*
G36*
G01X1655958Y-1358900D02*
G01X1655958Y-1333500D01*
G01X1660418Y-1332782D01*
G01X1664757Y-1330891D01*
G01X1668934Y-1328216D01*
G01X1672911Y-1325150D01*
G01X1680101Y-1319409D01*
G01X1683234Y-1317517D01*
G01X1686006Y-1316799D01*
G01X1686006Y-1375600D01*
G01X1683234Y-1374883D01*
G01X1680101Y-1372991D01*
G01X1672911Y-1367250D01*
G01X1668934Y-1364184D01*
G01X1664757Y-1361509D01*
G01X1660418Y-1359618D01*
G01X1655958Y-1358900D01*
G37*
G36*
G01X1647906Y-1231900D02*
G01X1647906Y-1206500D01*
G01X1653578Y-1205782D01*
G01X1659119Y-1203891D01*
G01X1664465Y-1201216D01*
G01X1669551Y-1198150D01*
G01X1678686Y-1192409D01*
G01X1682605Y-1190517D01*
G01X1686006Y-1189799D01*
G01X1686006Y-1248600D01*
G01X1682605Y-1247883D01*
G01X1678686Y-1245991D01*
G01X1669551Y-1240250D01*
G01X1664465Y-1237184D01*
G01X1659119Y-1234509D01*
G01X1653578Y-1232618D01*
G01X1647906Y-1231900D01*
G37*
G36*
G01X1609806Y-1117600D02*
G01X1609806Y-1066800D01*
G01X1632425Y-1066175D01*
G01X1653613Y-1064800D01*
G01X1671948Y-1063425D01*
G01X1686006Y-1062799D01*
G01X1686006Y-1121600D01*
G01X1671948Y-1120975D01*
G01X1653613Y-1119600D01*
G01X1632425Y-1118225D01*
G01X1609806Y-1117600D01*
G37*
G36*
G01X1753470Y-986126D02*
G01X1810058Y-996367D01*
G01X1805939Y-1001100D01*
G01X1802162Y-1006167D01*
G01X1798765Y-1011481D01*
G01X1795788Y-1016953D01*
G01X1793270Y-1022494D01*
G01X1791252Y-1028018D01*
G01X1789772Y-1033434D01*
G01X1788870Y-1038655D01*
G01X1788586Y-1043593D01*
G01X1788959Y-1048158D01*
G01X1790029Y-1052264D01*
G01X1791834Y-1055821D01*
G01X1794415Y-1058742D01*
G01X1797810Y-1060937D01*
G01X1802061Y-1062319D01*
G01X1807205Y-1062799D01*
G01X1686006Y-1062799D01*
G01X1687805Y-1062360D01*
G01X1690157Y-1061077D01*
G01X1696322Y-1056210D01*
G01X1704106Y-1048648D01*
G01X1713113Y-1038839D01*
G01X1722948Y-1027233D01*
G01X1733216Y-1014280D01*
G01X1743522Y-1000428D01*
G01X1753470Y-986126D01*
G37*
G36*
G01X1473565Y-1460135D02*
G01X1473565Y-1434735D01*
G03X1491223Y-1415685I-1447J19050D01*
G01X1491223Y-1479185D01*
G03X1473565Y-1460135I-19105J0D01*
G37*
G36*
G01X1565948Y-1377582D02*
G01X1592021Y-1386193D01*
G03X1591580Y-1415685I15642J-14983D01*
G01X1528080Y-1415685D01*
G03X1565948Y-1377582I-136042J173071D01*
G37*
G36*
G01X1567423Y-1618885D02*
G01X1542023Y-1618885D01*
G03X1522973Y-1580785I-47625J0D01*
G01X1586473Y-1580785D01*
G03X1567423Y-1618885I28575J-38100D01*
G37*
G36*
G01X2122400Y-952500D02*
G01X2122400Y-901700D01*
G01X2127873Y-901481D01*
G01X2133256Y-900903D01*
G01X2143418Y-899150D01*
G01X2152222Y-897397D01*
G01X2159000Y-896600D01*
G01X2159000Y-957600D01*
G01X2152222Y-956803D01*
G01X2143418Y-955050D01*
G01X2133256Y-953297D01*
G01X2127873Y-952719D01*
G01X2122400Y-952500D01*
G37*
G04 TearDrop End*

G04 Pad Start*
G54D11*
G01X1964588Y-927100D03*
G01X2048612Y-927100D03*
G54D12*
G01X1113770Y-1711906D03*
G54D13*
G01X1367770Y-1711906D03*
G01X1621770Y-1711906D03*
G01X1875770Y-1711906D03*
G01X2129770Y-1711906D03*
G01X2383770Y-1711906D03*
G01X2637770Y-1711906D03*
G01X2891770Y-1711906D03*
G54D14*
G01X1220399Y-1270005D03*
G01X1370411Y-1270005D03*
G54D15*
G01X1370736Y-1498600D03*
G01X1220064Y-1498600D03*
G54D16*
G01X2266594Y-1473200D03*
G01X2266594Y-1346200D03*
G01X2266594Y-1219200D03*
G01X2266594Y-1092200D03*
G01X1746606Y-1473200D03*
G01X1746606Y-1346200D03*
G01X1746606Y-1219200D03*
G01X1746606Y-1092200D03*
G54D17*
G01X1554723Y-1447435D03*
G01X1554723Y-1549035D03*
G04 Pad End*

G04 Via Start*
G54D19*
G01X2159000Y-927100D03*
G01X2425700Y-1092200D03*
G04 Via End*

G04 Track Start*
G54D20*
G01X2266594Y-1219200D02*
G01X2387600Y-1219200D01*
G02X2641600Y-1473200I0J-254000D01*
G01X2641600Y-1701800D01*
G01X2266594Y-1473200D02*
G01X2266594Y-1581506D01*
G02X2146300Y-1701800I-120294J0D01*
G01X1746606Y-1473200D02*
G01X1746606Y-1568806D01*
G03X1879600Y-1701800I132994J0D01*
G01X2266594Y-1346200D02*
G01X2362200Y-1346200D01*
G02X2514600Y-1498600I0J-152400D01*
G01X2514600Y-1574800D01*
G02X2387600Y-1701800I-127000J0D01*
G54D10*
G01X1746606Y-1092200D02*
G01X1358900Y-1092200D01*
G01X1104900Y-1346200D02*
G01X1104900Y-1689100D01*
G01X1746606Y-1092200D02*
G02X1911706Y-927100I165100J0D01*
G01X1964588Y-927100D01*
G01X2048612Y-927100D02*
G01X2159000Y-927100D01*
G01X1358900Y-1092200D02*
G03X1295421Y-1100260I0J-253999D01*
G01X1185015Y-1161052D02*
G03X1104900Y-1346200I173885J-185149D01*
G01X1295413Y-1100262D02*
G03X1233823Y-1125131I63487J-245938D01*
G03X1185015Y-1161052I125078J-221069D01*
G54D20*
G01X1746606Y-1219200D02*
G01X1587500Y-1219200D01*
G03X1536700Y-1270000I0J-50800D01*
G02X1460500Y-1346200I-76200J0D01*
G01X1358900Y-1346200D02*
G03X1295400Y-1409700I0J-63500D01*
G01X1295400Y-1639537D01*
G03X1367770Y-1711906I72370J0D01*
G01X1460500Y-1346200D02*
G01X1358900Y-1346200D01*
G01X1220399Y-1270005D02*
G01X1220399Y-1498265D01*
G02X1220064Y-1498600I-335J0D01*
G01X1370736Y-1498600D02*
G01X1435100Y-1498600D01*
G03X1460500Y-1473200I0J25400D01*
G01X1460500Y-1460500D01*
G02X1473565Y-1447435I13065J0D01*
G01X1554723Y-1447435D01*
G01X1554723Y-1447435D02*
G02X1655958Y-1346200I101235J0D01*
G01X1746606Y-1346200D01*
G01X1554723Y-1549035D02*
G01X1554723Y-1644859D01*
G03X1621770Y-1711906I67047J0D01*
G01X1370411Y-1270005D02*
G01X1370411Y-1103711D01*
G03X1358900Y-1092200I-11511J0D01*
G04 Track End*

M02*

