G04 Layer: DrillDrawingLayer*
G04 EasyEDA Pro v3.2.148, 2026-08-31 06:39:05*
G04 Gerber Generator version 0.3*
G04 Scale: 100 percent, Rotated: No, Reflected: No*
G04 Dimensions in millimeters*
G04 Leading zeros omitted, absolute positions, 4 integers and 5 decimals*
G04 Generated by one-click*
G04 Object Configs: Pad,Via,Track,Text,Image,Dimension,BoardOutline,BoardCutout,CopperFilled,SolidRegion,FPCStiffener,Line,PlaneZone,ComponentProperty,ComponentSilkscreen,TearDrop*
G04 Layer Configs: 1,2,3,4,5,6,7,8,9,10,11,13,14,56*
G04 Copper Areas: 0*
%FSLAX45Y45*%
%MOMM*%
%AMIconRect*4,1,4,0.28,-0.28,-0.28,-0.28,-0.28,0.28,0.28,0.28,0.28,-0.28,0*4,0,4,0.233333,-0.233333,0.233333,0.233333,-0.233333,0.233333,-0.233333,-0.233333,0.233333,-0.233333,0*%
%ADD10IconRect*%
%ADD11C,0.616X0.522667*%
%ADD12C,0.2032*%
%ADD13C,0.254*%
G75*


G04 Drill Drawing Start*
G54D10*
G01X2159000Y-927100D03*
G01X2425700Y-1092200D03*
G54D11*
G01X1113770Y-1711906D03*
G01X1367770Y-1711906D03*
G01X1621770Y-1711906D03*
G01X1875770Y-1711906D03*
G01X2129770Y-1711906D03*
G01X2383770Y-1711906D03*
G01X2637770Y-1711906D03*
G01X2891770Y-1711906D03*
G04 Drill Drawing End*

G04 Text Start*
G54D12*
G01X5450046Y-996406D02*
G01X5450046Y-1116548D01*
G01X5450046Y-996406D02*
G01X5495766Y-1116548D01*
G01X5541486Y-996406D02*
G01X5495766Y-1116548D01*
G01X5541486Y-996406D02*
G01X5541486Y-1116548D01*
G01X5657818Y-1036538D02*
G01X5657818Y-1116548D01*
G01X5657818Y-1053556D02*
G01X5646388Y-1042126D01*
G01X5634958Y-1036538D01*
G01X5617940Y-1036538D01*
G01X5606510Y-1042126D01*
G01X5595080Y-1053556D01*
G01X5589238Y-1070828D01*
G01X5589238Y-1082258D01*
G01X5595080Y-1099276D01*
G01X5606510Y-1110706D01*
G01X5617940Y-1116548D01*
G01X5634958Y-1116548D01*
G01X5646388Y-1110706D01*
G01X5657818Y-1099276D01*
G01X5705570Y-1036538D02*
G01X5705570Y-1116548D01*
G01X5705570Y-1070828D02*
G01X5711412Y-1053556D01*
G01X5722842Y-1042126D01*
G01X5734272Y-1036538D01*
G01X5751290Y-1036538D01*
G01X5799042Y-996406D02*
G01X5799042Y-1116548D01*
G01X5856192Y-1036538D02*
G01X5799042Y-1093688D01*
G01X5821902Y-1070828D02*
G01X5862034Y-1116548D01*
G01X6987326Y-1025108D02*
G01X6981484Y-1013678D01*
G01X6970054Y-1002248D01*
G01X6958624Y-996406D01*
G01X6935764Y-996406D01*
G01X6924334Y-1002248D01*
G01X6912904Y-1013678D01*
G01X6907316Y-1025108D01*
G01X6901474Y-1042126D01*
G01X6901474Y-1070828D01*
G01X6907316Y-1087846D01*
G01X6912904Y-1099276D01*
G01X6924334Y-1110706D01*
G01X6935764Y-1116548D01*
G01X6958624Y-1116548D01*
G01X6970054Y-1110706D01*
G01X6981484Y-1099276D01*
G01X6987326Y-1087846D01*
G01X7063780Y-1036538D02*
G01X7052350Y-1042126D01*
G01X7040920Y-1053556D01*
G01X7035078Y-1070828D01*
G01X7035078Y-1082258D01*
G01X7040920Y-1099276D01*
G01X7052350Y-1110706D01*
G01X7063780Y-1116548D01*
G01X7080798Y-1116548D01*
G01X7092228Y-1110706D01*
G01X7103658Y-1099276D01*
G01X7109500Y-1082258D01*
G01X7109500Y-1070828D01*
G01X7103658Y-1053556D01*
G01X7092228Y-1042126D01*
G01X7080798Y-1036538D01*
G01X7063780Y-1036538D01*
G01X7157252Y-1036538D02*
G01X7157252Y-1093688D01*
G01X7163094Y-1110706D01*
G01X7174524Y-1116548D01*
G01X7191542Y-1116548D01*
G01X7202972Y-1110706D01*
G01X7220244Y-1093688D01*
G01X7220244Y-1036538D02*
G01X7220244Y-1116548D01*
G01X7267996Y-1036538D02*
G01X7267996Y-1116548D01*
G01X7267996Y-1059398D02*
G01X7285268Y-1042126D01*
G01X7296698Y-1036538D01*
G01X7313716Y-1036538D01*
G01X7325146Y-1042126D01*
G01X7330988Y-1059398D01*
G01X7330988Y-1116548D01*
G01X7396012Y-996406D02*
G01X7396012Y-1093688D01*
G01X7401600Y-1110706D01*
G01X7413030Y-1116548D01*
G01X7424460Y-1116548D01*
G01X7378740Y-1036538D02*
G01X7418872Y-1036538D01*
G01X8395647Y-1013678D02*
G01X8384217Y-1002248D01*
G01X8367199Y-996406D01*
G01X8344339Y-996406D01*
G01X8327067Y-1002248D01*
G01X8315637Y-1013678D01*
G01X8315637Y-1025108D01*
G01X8321479Y-1036538D01*
G01X8327067Y-1042126D01*
G01X8338497Y-1047968D01*
G01X8372787Y-1059398D01*
G01X8384217Y-1064986D01*
G01X8390059Y-1070828D01*
G01X8395647Y-1082258D01*
G01X8395647Y-1099276D01*
G01X8384217Y-1110706D01*
G01X8367199Y-1116548D01*
G01X8344339Y-1116548D01*
G01X8327067Y-1110706D01*
G01X8315637Y-1099276D01*
G01X8443399Y-996406D02*
G01X8449241Y-1002248D01*
G01X8454829Y-996406D01*
G01X8449241Y-990818D01*
G01X8443399Y-996406D01*
G01X8449241Y-1036538D02*
G01X8449241Y-1116548D01*
G01X8565573Y-1036538D02*
G01X8502581Y-1116548D01*
G01X8502581Y-1036538D02*
G01X8565573Y-1036538D01*
G01X8502581Y-1116548D02*
G01X8565573Y-1116548D01*
G01X8613325Y-1070828D02*
G01X8681905Y-1070828D01*
G01X8681905Y-1059398D01*
G01X8676317Y-1047968D01*
G01X8670475Y-1042126D01*
G01X8659045Y-1036538D01*
G01X8642027Y-1036538D01*
G01X8630597Y-1042126D01*
G01X8619167Y-1053556D01*
G01X8613325Y-1070828D01*
G01X8613325Y-1082258D01*
G01X8619167Y-1099276D01*
G01X8630597Y-1110706D01*
G01X8642027Y-1116548D01*
G01X8659045Y-1116548D01*
G01X8670475Y-1110706D01*
G01X8681905Y-1099276D01*
G01X12118163Y-996406D02*
G01X12118163Y-1116548D01*
G01X12118163Y-996406D02*
G01X12169725Y-996406D01*
G01X12186743Y-1002248D01*
G01X12192585Y-1007836D01*
G01X12198173Y-1019266D01*
G01X12198173Y-1036538D01*
G01X12192585Y-1047968D01*
G01X12186743Y-1053556D01*
G01X12169725Y-1059398D01*
G01X12118163Y-1059398D01*
G01X12245925Y-996406D02*
G01X12245925Y-1116548D01*
G01X12362257Y-1036538D02*
G01X12362257Y-1116548D01*
G01X12362257Y-1053556D02*
G01X12350827Y-1042126D01*
G01X12339397Y-1036538D01*
G01X12322379Y-1036538D01*
G01X12310949Y-1042126D01*
G01X12299519Y-1053556D01*
G01X12293677Y-1070828D01*
G01X12293677Y-1082258D01*
G01X12299519Y-1099276D01*
G01X12310949Y-1110706D01*
G01X12322379Y-1116548D01*
G01X12339397Y-1116548D01*
G01X12350827Y-1110706D01*
G01X12362257Y-1099276D01*
G01X12427281Y-996406D02*
G01X12427281Y-1093688D01*
G01X12432869Y-1110706D01*
G01X12444299Y-1116548D01*
G01X12455729Y-1116548D01*
G01X12410009Y-1036538D02*
G01X12450141Y-1036538D01*
G01X12503481Y-1070828D02*
G01X12572061Y-1070828D01*
G01X12572061Y-1059398D01*
G01X12566473Y-1047968D01*
G01X12560631Y-1042126D01*
G01X12549201Y-1036538D01*
G01X12532183Y-1036538D01*
G01X12520753Y-1042126D01*
G01X12509323Y-1053556D01*
G01X12503481Y-1070828D01*
G01X12503481Y-1082258D01*
G01X12509323Y-1099276D01*
G01X12520753Y-1110706D01*
G01X12532183Y-1116548D01*
G01X12549201Y-1116548D01*
G01X12560631Y-1110706D01*
G01X12572061Y-1099276D01*
G01X12688393Y-996406D02*
G01X12688393Y-1116548D01*
G01X12688393Y-1053556D02*
G01X12676963Y-1042126D01*
G01X12665533Y-1036538D01*
G01X12648515Y-1036538D01*
G01X12637085Y-1042126D01*
G01X12625655Y-1053556D01*
G01X12619813Y-1070828D01*
G01X12619813Y-1082258D01*
G01X12625655Y-1099276D01*
G01X12637085Y-1110706D01*
G01X12648515Y-1116548D01*
G01X12665533Y-1116548D01*
G01X12676963Y-1110706D01*
G01X12688393Y-1099276D01*
G01X13659580Y-1013678D02*
G01X13648150Y-1002248D01*
G01X13631132Y-996406D01*
G01X13608272Y-996406D01*
G01X13591000Y-1002248D01*
G01X13579570Y-1013678D01*
G01X13579570Y-1025108D01*
G01X13585412Y-1036538D01*
G01X13591000Y-1042126D01*
G01X13602430Y-1047968D01*
G01X13636720Y-1059398D01*
G01X13648150Y-1064986D01*
G01X13653992Y-1070828D01*
G01X13659580Y-1082258D01*
G01X13659580Y-1099276D01*
G01X13648150Y-1110706D01*
G01X13631132Y-1116548D01*
G01X13608272Y-1116548D01*
G01X13591000Y-1110706D01*
G01X13579570Y-1099276D01*
G01X13707332Y-996406D02*
G01X13707332Y-1116548D01*
G01X13707332Y-1059398D02*
G01X13724604Y-1042126D01*
G01X13736034Y-1036538D01*
G01X13753052Y-1036538D01*
G01X13764482Y-1042126D01*
G01X13770324Y-1059398D01*
G01X13770324Y-1116548D01*
G01X13886656Y-1036538D02*
G01X13886656Y-1116548D01*
G01X13886656Y-1053556D02*
G01X13875226Y-1042126D01*
G01X13863796Y-1036538D01*
G01X13846778Y-1036538D01*
G01X13835348Y-1042126D01*
G01X13823918Y-1053556D01*
G01X13818076Y-1070828D01*
G01X13818076Y-1082258D01*
G01X13823918Y-1099276D01*
G01X13835348Y-1110706D01*
G01X13846778Y-1116548D01*
G01X13863796Y-1116548D01*
G01X13875226Y-1110706D01*
G01X13886656Y-1099276D01*
G01X13934408Y-1036538D02*
G01X13934408Y-1156426D01*
G01X13934408Y-1053556D02*
G01X13945838Y-1042126D01*
G01X13957268Y-1036538D01*
G01X13974540Y-1036538D01*
G01X13985970Y-1042126D01*
G01X13997400Y-1053556D01*
G01X14002988Y-1070828D01*
G01X14002988Y-1082258D01*
G01X13997400Y-1099276D01*
G01X13985970Y-1110706D01*
G01X13974540Y-1116548D01*
G01X13957268Y-1116548D01*
G01X13945838Y-1110706D01*
G01X13934408Y-1099276D01*
G01X14050740Y-1070828D02*
G01X14119320Y-1070828D01*
G01X14119320Y-1059398D01*
G01X14113732Y-1047968D01*
G01X14107890Y-1042126D01*
G01X14096460Y-1036538D01*
G01X14079442Y-1036538D01*
G01X14068012Y-1042126D01*
G01X14056582Y-1053556D01*
G01X14050740Y-1070828D01*
G01X14050740Y-1082258D01*
G01X14056582Y-1099276D01*
G01X14068012Y-1110706D01*
G01X14079442Y-1116548D01*
G01X14096460Y-1116548D01*
G01X14107890Y-1110706D01*
G01X14119320Y-1099276D01*
G01X15010751Y-996406D02*
G01X15056471Y-1116548D01*
G01X15102191Y-996406D02*
G01X15056471Y-1116548D01*
G01X15149943Y-996406D02*
G01X15155785Y-1002248D01*
G01X15161373Y-996406D01*
G01X15155785Y-990818D01*
G01X15149943Y-996406D01*
G01X15155785Y-1036538D02*
G01X15155785Y-1116548D01*
G01X15277705Y-1036538D02*
G01X15277705Y-1116548D01*
G01X15277705Y-1053556D02*
G01X15266275Y-1042126D01*
G01X15254845Y-1036538D01*
G01X15237827Y-1036538D01*
G01X15226397Y-1042126D01*
G01X15214967Y-1053556D01*
G01X15209125Y-1070828D01*
G01X15209125Y-1082258D01*
G01X15214967Y-1099276D01*
G01X15226397Y-1110706D01*
G01X15237827Y-1116548D01*
G01X15254845Y-1116548D01*
G01X15266275Y-1110706D01*
G01X15277705Y-1099276D01*
G01X15428327Y-973546D02*
G01X15325457Y-1156426D01*
G01X15476079Y-996406D02*
G01X15476079Y-1116548D01*
G01X15476079Y-996406D02*
G01X15527641Y-996406D01*
G01X15544659Y-1002248D01*
G01X15550501Y-1007836D01*
G01X15556089Y-1019266D01*
G01X15556089Y-1036538D01*
G01X15550501Y-1047968D01*
G01X15544659Y-1053556D01*
G01X15527641Y-1059398D01*
G01X15476079Y-1059398D01*
G01X15672421Y-1036538D02*
G01X15672421Y-1116548D01*
G01X15672421Y-1053556D02*
G01X15660991Y-1042126D01*
G01X15649561Y-1036538D01*
G01X15632543Y-1036538D01*
G01X15621113Y-1042126D01*
G01X15609683Y-1053556D01*
G01X15603841Y-1070828D01*
G01X15603841Y-1082258D01*
G01X15609683Y-1099276D01*
G01X15621113Y-1110706D01*
G01X15632543Y-1116548D01*
G01X15649561Y-1116548D01*
G01X15660991Y-1110706D01*
G01X15672421Y-1099276D01*
G01X15788753Y-996406D02*
G01X15788753Y-1116548D01*
G01X15788753Y-1053556D02*
G01X15777323Y-1042126D01*
G01X15765893Y-1036538D01*
G01X15748875Y-1036538D01*
G01X15737445Y-1042126D01*
G01X15726015Y-1053556D01*
G01X15720173Y-1070828D01*
G01X15720173Y-1082258D01*
G01X15726015Y-1099276D01*
G01X15737445Y-1110706D01*
G01X15748875Y-1116548D01*
G01X15765893Y-1116548D01*
G01X15777323Y-1110706D01*
G01X15788753Y-1099276D01*
G01X16679930Y-996406D02*
G01X16679930Y-1116548D01*
G01X16679930Y-996406D02*
G01X16731492Y-996406D01*
G01X16748510Y-1002248D01*
G01X16754352Y-1007836D01*
G01X16759940Y-1019266D01*
G01X16759940Y-1036538D01*
G01X16754352Y-1047968D01*
G01X16748510Y-1053556D01*
G01X16731492Y-1059398D01*
G01X16679930Y-1059398D01*
G01X16876272Y-1036538D02*
G01X16876272Y-1116548D01*
G01X16876272Y-1053556D02*
G01X16864842Y-1042126D01*
G01X16853412Y-1036538D01*
G01X16836394Y-1036538D01*
G01X16824964Y-1042126D01*
G01X16813534Y-1053556D01*
G01X16807692Y-1070828D01*
G01X16807692Y-1082258D01*
G01X16813534Y-1099276D01*
G01X16824964Y-1110706D01*
G01X16836394Y-1116548D01*
G01X16853412Y-1116548D01*
G01X16864842Y-1110706D01*
G01X16876272Y-1099276D01*
G01X16992604Y-996406D02*
G01X16992604Y-1116548D01*
G01X16992604Y-1053556D02*
G01X16981174Y-1042126D01*
G01X16969744Y-1036538D01*
G01X16952726Y-1036538D01*
G01X16941296Y-1042126D01*
G01X16929866Y-1053556D01*
G01X16924024Y-1070828D01*
G01X16924024Y-1082258D01*
G01X16929866Y-1099276D01*
G01X16941296Y-1110706D01*
G01X16952726Y-1116548D01*
G01X16969744Y-1116548D01*
G01X16981174Y-1110706D01*
G01X16992604Y-1099276D01*
G01X17248382Y-1013678D02*
G01X17236952Y-1002248D01*
G01X17219934Y-996406D01*
G01X17197074Y-996406D01*
G01X17179802Y-1002248D01*
G01X17168372Y-1013678D01*
G01X17168372Y-1025108D01*
G01X17174214Y-1036538D01*
G01X17179802Y-1042126D01*
G01X17191232Y-1047968D01*
G01X17225522Y-1059398D01*
G01X17236952Y-1064986D01*
G01X17242794Y-1070828D01*
G01X17248382Y-1082258D01*
G01X17248382Y-1099276D01*
G01X17236952Y-1110706D01*
G01X17219934Y-1116548D01*
G01X17197074Y-1116548D01*
G01X17179802Y-1110706D01*
G01X17168372Y-1099276D01*
G01X17296134Y-996406D02*
G01X17296134Y-1116548D01*
G01X17296134Y-1059398D02*
G01X17313406Y-1042126D01*
G01X17324836Y-1036538D01*
G01X17341854Y-1036538D01*
G01X17353284Y-1042126D01*
G01X17359126Y-1059398D01*
G01X17359126Y-1116548D01*
G01X17475458Y-1036538D02*
G01X17475458Y-1116548D01*
G01X17475458Y-1053556D02*
G01X17464028Y-1042126D01*
G01X17452598Y-1036538D01*
G01X17435580Y-1036538D01*
G01X17424150Y-1042126D01*
G01X17412720Y-1053556D01*
G01X17406878Y-1070828D01*
G01X17406878Y-1082258D01*
G01X17412720Y-1099276D01*
G01X17424150Y-1110706D01*
G01X17435580Y-1116548D01*
G01X17452598Y-1116548D01*
G01X17464028Y-1110706D01*
G01X17475458Y-1099276D01*
G01X17523210Y-1036538D02*
G01X17523210Y-1156426D01*
G01X17523210Y-1053556D02*
G01X17534640Y-1042126D01*
G01X17546070Y-1036538D01*
G01X17563342Y-1036538D01*
G01X17574772Y-1042126D01*
G01X17586202Y-1053556D01*
G01X17591790Y-1070828D01*
G01X17591790Y-1082258D01*
G01X17586202Y-1099276D01*
G01X17574772Y-1110706D01*
G01X17563342Y-1116548D01*
G01X17546070Y-1116548D01*
G01X17534640Y-1110706D01*
G01X17523210Y-1099276D01*
G01X17639542Y-1070828D02*
G01X17708122Y-1070828D01*
G01X17708122Y-1059398D01*
G01X17702534Y-1047968D01*
G01X17696692Y-1042126D01*
G01X17685262Y-1036538D01*
G01X17668244Y-1036538D01*
G01X17656814Y-1042126D01*
G01X17645384Y-1053556D01*
G01X17639542Y-1070828D01*
G01X17639542Y-1082258D01*
G01X17645384Y-1099276D01*
G01X17656814Y-1110706D01*
G01X17668244Y-1116548D01*
G01X17685262Y-1116548D01*
G01X17696692Y-1110706D01*
G01X17708122Y-1099276D01*
G01X18599299Y-996406D02*
G01X18599299Y-1116548D01*
G01X18599299Y-1116548D02*
G01X18667879Y-1116548D01*
G01X18784211Y-1036538D02*
G01X18784211Y-1116548D01*
G01X18784211Y-1053556D02*
G01X18772781Y-1042126D01*
G01X18761351Y-1036538D01*
G01X18744333Y-1036538D01*
G01X18732903Y-1042126D01*
G01X18721473Y-1053556D01*
G01X18715631Y-1070828D01*
G01X18715631Y-1082258D01*
G01X18721473Y-1099276D01*
G01X18732903Y-1110706D01*
G01X18744333Y-1116548D01*
G01X18761351Y-1116548D01*
G01X18772781Y-1110706D01*
G01X18784211Y-1099276D01*
G01X18837805Y-1036538D02*
G01X18872095Y-1116548D01*
G01X18906385Y-1036538D02*
G01X18872095Y-1116548D01*
G01X18860665Y-1139408D01*
G01X18849235Y-1150838D01*
G01X18837805Y-1156426D01*
G01X18831963Y-1156426D01*
G01X18954137Y-1070828D02*
G01X19022717Y-1070828D01*
G01X19022717Y-1059398D01*
G01X19017129Y-1047968D01*
G01X19011287Y-1042126D01*
G01X18999857Y-1036538D01*
G01X18982839Y-1036538D01*
G01X18971409Y-1042126D01*
G01X18959979Y-1053556D01*
G01X18954137Y-1070828D01*
G01X18954137Y-1082258D01*
G01X18959979Y-1099276D01*
G01X18971409Y-1110706D01*
G01X18982839Y-1116548D01*
G01X18999857Y-1116548D01*
G01X19011287Y-1110706D01*
G01X19022717Y-1099276D01*
G01X19070469Y-1036538D02*
G01X19070469Y-1116548D01*
G01X19070469Y-1070828D02*
G01X19076311Y-1053556D01*
G01X19087741Y-1042126D01*
G01X19099171Y-1036538D01*
G01X19116189Y-1036538D01*
G01X19291957Y-996406D02*
G01X19291957Y-1116548D01*
G01X19291957Y-996406D02*
G01X19343519Y-996406D01*
G01X19360537Y-1002248D01*
G01X19366379Y-1007836D01*
G01X19371967Y-1019266D01*
G01X19371967Y-1036538D01*
G01X19366379Y-1047968D01*
G01X19360537Y-1053556D01*
G01X19343519Y-1059398D01*
G01X19291957Y-1059398D01*
G01X19488299Y-1036538D02*
G01X19488299Y-1116548D01*
G01X19488299Y-1053556D02*
G01X19476869Y-1042126D01*
G01X19465439Y-1036538D01*
G01X19448421Y-1036538D01*
G01X19436991Y-1042126D01*
G01X19425561Y-1053556D01*
G01X19419719Y-1070828D01*
G01X19419719Y-1082258D01*
G01X19425561Y-1099276D01*
G01X19436991Y-1110706D01*
G01X19448421Y-1116548D01*
G01X19465439Y-1116548D01*
G01X19476869Y-1110706D01*
G01X19488299Y-1099276D01*
G01X19536051Y-996406D02*
G01X19541893Y-1002248D01*
G01X19547481Y-996406D01*
G01X19541893Y-990818D01*
G01X19536051Y-996406D01*
G01X19541893Y-1036538D02*
G01X19541893Y-1116548D01*
G01X19595233Y-1036538D02*
G01X19595233Y-1116548D01*
G01X19595233Y-1070828D02*
G01X19601075Y-1053556D01*
G01X19612505Y-1042126D01*
G01X19623935Y-1036538D01*
G01X19640953Y-1036538D01*
G01X6907316Y-1605679D02*
G01X6907316Y-1599837D01*
G01X6912904Y-1588407D01*
G01X6918746Y-1582819D01*
G01X6930176Y-1576977D01*
G01X6953036Y-1576977D01*
G01X6964466Y-1582819D01*
G01X6970054Y-1588407D01*
G01X6975896Y-1599837D01*
G01X6975896Y-1611267D01*
G01X6970054Y-1622697D01*
G01X6958624Y-1639969D01*
G01X6901474Y-1697119D01*
G01X6981484Y-1697119D01*
G01X8315637Y-1599837D02*
G01X8327067Y-1594249D01*
G01X8344339Y-1576977D01*
G01X8344339Y-1697119D01*
G01X8397933Y-1605679D02*
G01X8397933Y-1599837D01*
G01X8403521Y-1588407D01*
G01X8409363Y-1582819D01*
G01X8420793Y-1576977D01*
G01X8443653Y-1576977D01*
G01X8455083Y-1582819D01*
G01X8460671Y-1588407D01*
G01X8466513Y-1599837D01*
G01X8466513Y-1611267D01*
G01X8460671Y-1622697D01*
G01X8449241Y-1639969D01*
G01X8392091Y-1697119D01*
G01X8472101Y-1697119D01*
G01X8525695Y-1668417D02*
G01X8519853Y-1674259D01*
G01X8525695Y-1679847D01*
G01X8531283Y-1674259D01*
G01X8525695Y-1668417D01*
G01X8613325Y-1576977D02*
G01X8596307Y-1582819D01*
G01X8584877Y-1599837D01*
G01X8579035Y-1628539D01*
G01X8579035Y-1645557D01*
G01X8584877Y-1674259D01*
G01X8596307Y-1691277D01*
G01X8613325Y-1697119D01*
G01X8624755Y-1697119D01*
G01X8642027Y-1691277D01*
G01X8653457Y-1674259D01*
G01X8659045Y-1645557D01*
G01X8659045Y-1628539D01*
G01X8653457Y-1599837D01*
G01X8642027Y-1582819D01*
G01X8624755Y-1576977D01*
G01X8613325Y-1576977D01*
G01X8706797Y-1617109D02*
G01X8706797Y-1697119D01*
G01X8706797Y-1639969D02*
G01X8724069Y-1622697D01*
G01X8735499Y-1617109D01*
G01X8752517Y-1617109D01*
G01X8763947Y-1622697D01*
G01X8769789Y-1639969D01*
G01X8769789Y-1697119D01*
G01X8769789Y-1639969D02*
G01X8786807Y-1622697D01*
G01X8798237Y-1617109D01*
G01X8815509Y-1617109D01*
G01X8826939Y-1622697D01*
G01X8832527Y-1639969D01*
G01X8832527Y-1697119D01*
G01X8880279Y-1576977D02*
G01X8886121Y-1582819D01*
G01X8891709Y-1576977D01*
G01X8886121Y-1571389D01*
G01X8880279Y-1576977D01*
G01X8886121Y-1617109D02*
G01X8886121Y-1697119D01*
G01X8939461Y-1576977D02*
G01X8939461Y-1697119D01*
G01X9027345Y-1554117D02*
G01X9015915Y-1565547D01*
G01X9004485Y-1582819D01*
G01X8993055Y-1605679D01*
G01X8987213Y-1634127D01*
G01X8987213Y-1656987D01*
G01X8993055Y-1685689D01*
G01X9004485Y-1708549D01*
G01X9015915Y-1725567D01*
G01X9027345Y-1736997D01*
G01X9109387Y-1576977D02*
G01X9092369Y-1582819D01*
G01X9080939Y-1599837D01*
G01X9075097Y-1628539D01*
G01X9075097Y-1645557D01*
G01X9080939Y-1674259D01*
G01X9092369Y-1691277D01*
G01X9109387Y-1697119D01*
G01X9120817Y-1697119D01*
G01X9138089Y-1691277D01*
G01X9149519Y-1674259D01*
G01X9155107Y-1645557D01*
G01X9155107Y-1628539D01*
G01X9149519Y-1599837D01*
G01X9138089Y-1582819D01*
G01X9120817Y-1576977D01*
G01X9109387Y-1576977D01*
G01X9208701Y-1668417D02*
G01X9202859Y-1674259D01*
G01X9208701Y-1679847D01*
G01X9214289Y-1674259D01*
G01X9208701Y-1668417D01*
G01X9273471Y-1576977D02*
G01X9336463Y-1576977D01*
G01X9302173Y-1622697D01*
G01X9319191Y-1622697D01*
G01X9330621Y-1628539D01*
G01X9336463Y-1634127D01*
G01X9342051Y-1651399D01*
G01X9342051Y-1662829D01*
G01X9336463Y-1679847D01*
G01X9325033Y-1691277D01*
G01X9307761Y-1697119D01*
G01X9290743Y-1697119D01*
G01X9273471Y-1691277D01*
G01X9267883Y-1685689D01*
G01X9262041Y-1674259D01*
G01X9424093Y-1576977D02*
G01X9407075Y-1582819D01*
G01X9395645Y-1599837D01*
G01X9389803Y-1628539D01*
G01X9389803Y-1645557D01*
G01X9395645Y-1674259D01*
G01X9407075Y-1691277D01*
G01X9424093Y-1697119D01*
G01X9435523Y-1697119D01*
G01X9452795Y-1691277D01*
G01X9464225Y-1674259D01*
G01X9469813Y-1645557D01*
G01X9469813Y-1628539D01*
G01X9464225Y-1599837D01*
G01X9452795Y-1582819D01*
G01X9435523Y-1576977D01*
G01X9424093Y-1576977D01*
G01X9586145Y-1576977D02*
G01X9528995Y-1576977D01*
G01X9523407Y-1628539D01*
G01X9528995Y-1622697D01*
G01X9546267Y-1617109D01*
G01X9563285Y-1617109D01*
G01X9580557Y-1622697D01*
G01X9591987Y-1634127D01*
G01X9597575Y-1651399D01*
G01X9597575Y-1662829D01*
G01X9591987Y-1679847D01*
G01X9580557Y-1691277D01*
G01X9563285Y-1697119D01*
G01X9546267Y-1697119D01*
G01X9528995Y-1691277D01*
G01X9523407Y-1685689D01*
G01X9517565Y-1674259D01*
G01X9645327Y-1617109D02*
G01X9645327Y-1697119D01*
G01X9645327Y-1639969D02*
G01X9662599Y-1622697D01*
G01X9674029Y-1617109D01*
G01X9691047Y-1617109D01*
G01X9702477Y-1622697D01*
G01X9708319Y-1639969D01*
G01X9708319Y-1697119D01*
G01X9708319Y-1639969D02*
G01X9725337Y-1622697D01*
G01X9736767Y-1617109D01*
G01X9754039Y-1617109D01*
G01X9765469Y-1622697D01*
G01X9771057Y-1639969D01*
G01X9771057Y-1697119D01*
G01X9818809Y-1617109D02*
G01X9818809Y-1697119D01*
G01X9818809Y-1639969D02*
G01X9836081Y-1622697D01*
G01X9847511Y-1617109D01*
G01X9864529Y-1617109D01*
G01X9875959Y-1622697D01*
G01X9881801Y-1639969D01*
G01X9881801Y-1697119D01*
G01X9881801Y-1639969D02*
G01X9898819Y-1622697D01*
G01X9910249Y-1617109D01*
G01X9927521Y-1617109D01*
G01X9938951Y-1622697D01*
G01X9944539Y-1639969D01*
G01X9944539Y-1697119D01*
G01X9992291Y-1554117D02*
G01X10003721Y-1565547D01*
G01X10015151Y-1582819D01*
G01X10026581Y-1605679D01*
G01X10032423Y-1634127D01*
G01X10032423Y-1656987D01*
G01X10026581Y-1685689D01*
G01X10015151Y-1708549D01*
G01X10003721Y-1725567D01*
G01X9992291Y-1736997D01*
G01X12118163Y-1576977D02*
G01X12118163Y-1697119D01*
G01X12118163Y-1576977D02*
G01X12169725Y-1576977D01*
G01X12186743Y-1582819D01*
G01X12192585Y-1588407D01*
G01X12198173Y-1599837D01*
G01X12198173Y-1617109D01*
G01X12192585Y-1628539D01*
G01X12186743Y-1634127D01*
G01X12169725Y-1639969D01*
G01X12118163Y-1639969D01*
G01X12286057Y-1576977D02*
G01X12286057Y-1697119D01*
G01X12245925Y-1576977D02*
G01X12325935Y-1576977D01*
G01X12373687Y-1576977D02*
G01X12373687Y-1697119D01*
G01X12453697Y-1576977D02*
G01X12453697Y-1697119D01*
G01X12373687Y-1634127D02*
G01X12453697Y-1634127D01*
G01X13579570Y-1576977D02*
G01X13579570Y-1697119D01*
G01X13579570Y-1576977D02*
G01X13631132Y-1576977D01*
G01X13648150Y-1582819D01*
G01X13653992Y-1588407D01*
G01X13659580Y-1599837D01*
G01X13659580Y-1611267D01*
G01X13653992Y-1622697D01*
G01X13648150Y-1628539D01*
G01X13631132Y-1634127D01*
G01X13579570Y-1634127D01*
G01X13619702Y-1634127D02*
G01X13659580Y-1697119D01*
G01X13736034Y-1617109D02*
G01X13724604Y-1622697D01*
G01X13713174Y-1634127D01*
G01X13707332Y-1651399D01*
G01X13707332Y-1662829D01*
G01X13713174Y-1679847D01*
G01X13724604Y-1691277D01*
G01X13736034Y-1697119D01*
G01X13753052Y-1697119D01*
G01X13764482Y-1691277D01*
G01X13775912Y-1679847D01*
G01X13781754Y-1662829D01*
G01X13781754Y-1651399D01*
G01X13775912Y-1634127D01*
G01X13764482Y-1622697D01*
G01X13753052Y-1617109D01*
G01X13736034Y-1617109D01*
G01X13829506Y-1617109D02*
G01X13829506Y-1674259D01*
G01X13835348Y-1691277D01*
G01X13846778Y-1697119D01*
G01X13863796Y-1697119D01*
G01X13875226Y-1691277D01*
G01X13892498Y-1674259D01*
G01X13892498Y-1617109D02*
G01X13892498Y-1697119D01*
G01X13940250Y-1617109D02*
G01X13940250Y-1697119D01*
G01X13940250Y-1639969D02*
G01X13957522Y-1622697D01*
G01X13968952Y-1617109D01*
G01X13985970Y-1617109D01*
G01X13997400Y-1622697D01*
G01X14003242Y-1639969D01*
G01X14003242Y-1697119D01*
G01X14119574Y-1576977D02*
G01X14119574Y-1697119D01*
G01X14119574Y-1634127D02*
G01X14108144Y-1622697D01*
G01X14096714Y-1617109D01*
G01X14079696Y-1617109D01*
G01X14068266Y-1622697D01*
G01X14056836Y-1634127D01*
G01X14050994Y-1651399D01*
G01X14050994Y-1662829D01*
G01X14056836Y-1679847D01*
G01X14068266Y-1691277D01*
G01X14079696Y-1697119D01*
G01X14096714Y-1697119D01*
G01X14108144Y-1691277D01*
G01X14119574Y-1679847D01*
G01X15010751Y-1576977D02*
G01X15056471Y-1697119D01*
G01X15102191Y-1576977D02*
G01X15056471Y-1697119D01*
G01X15149943Y-1576977D02*
G01X15155785Y-1582819D01*
G01X15161373Y-1576977D01*
G01X15155785Y-1571389D01*
G01X15149943Y-1576977D01*
G01X15155785Y-1617109D02*
G01X15155785Y-1697119D01*
G01X15277705Y-1617109D02*
G01X15277705Y-1697119D01*
G01X15277705Y-1634127D02*
G01X15266275Y-1622697D01*
G01X15254845Y-1617109D01*
G01X15237827Y-1617109D01*
G01X15226397Y-1622697D01*
G01X15214967Y-1634127D01*
G01X15209125Y-1651399D01*
G01X15209125Y-1662829D01*
G01X15214967Y-1679847D01*
G01X15226397Y-1691277D01*
G01X15237827Y-1697119D01*
G01X15254845Y-1697119D01*
G01X15266275Y-1691277D01*
G01X15277705Y-1679847D01*
G01X18639431Y-1576977D02*
G01X18639431Y-1697119D01*
G01X18599299Y-1576977D02*
G01X18679309Y-1576977D01*
G01X18755763Y-1617109D02*
G01X18744333Y-1622697D01*
G01X18732903Y-1634127D01*
G01X18727061Y-1651399D01*
G01X18727061Y-1662829D01*
G01X18732903Y-1679847D01*
G01X18744333Y-1691277D01*
G01X18755763Y-1697119D01*
G01X18772781Y-1697119D01*
G01X18784211Y-1691277D01*
G01X18795641Y-1679847D01*
G01X18801483Y-1662829D01*
G01X18801483Y-1651399D01*
G01X18795641Y-1634127D01*
G01X18784211Y-1622697D01*
G01X18772781Y-1617109D01*
G01X18755763Y-1617109D01*
G01X18849235Y-1617109D02*
G01X18849235Y-1736997D01*
G01X18849235Y-1634127D02*
G01X18860665Y-1622697D01*
G01X18872095Y-1617109D01*
G01X18889367Y-1617109D01*
G01X18900797Y-1622697D01*
G01X18912227Y-1634127D01*
G01X18917815Y-1651399D01*
G01X18917815Y-1662829D01*
G01X18912227Y-1679847D01*
G01X18900797Y-1691277D01*
G01X18889367Y-1697119D01*
G01X18872095Y-1697119D01*
G01X18860665Y-1691277D01*
G01X18849235Y-1679847D01*
G01X19093583Y-1576977D02*
G01X19093583Y-1697119D01*
G01X19093583Y-1697119D02*
G01X19162163Y-1697119D01*
G01X19278495Y-1617109D02*
G01X19278495Y-1697119D01*
G01X19278495Y-1634127D02*
G01X19267065Y-1622697D01*
G01X19255635Y-1617109D01*
G01X19238617Y-1617109D01*
G01X19227187Y-1622697D01*
G01X19215757Y-1634127D01*
G01X19209915Y-1651399D01*
G01X19209915Y-1662829D01*
G01X19215757Y-1679847D01*
G01X19227187Y-1691277D01*
G01X19238617Y-1697119D01*
G01X19255635Y-1697119D01*
G01X19267065Y-1691277D01*
G01X19278495Y-1679847D01*
G01X19332089Y-1617109D02*
G01X19366379Y-1697119D01*
G01X19400669Y-1617109D02*
G01X19366379Y-1697119D01*
G01X19354949Y-1719979D01*
G01X19343519Y-1731409D01*
G01X19332089Y-1736997D01*
G01X19326247Y-1736997D01*
G01X19448421Y-1651399D02*
G01X19517001Y-1651399D01*
G01X19517001Y-1639969D01*
G01X19511413Y-1628539D01*
G01X19505571Y-1622697D01*
G01X19494141Y-1617109D01*
G01X19477123Y-1617109D01*
G01X19465693Y-1622697D01*
G01X19454263Y-1634127D01*
G01X19448421Y-1651399D01*
G01X19448421Y-1662829D01*
G01X19454263Y-1679847D01*
G01X19465693Y-1691277D01*
G01X19477123Y-1697119D01*
G01X19494141Y-1697119D01*
G01X19505571Y-1691277D01*
G01X19517001Y-1679847D01*
G01X19564753Y-1617109D02*
G01X19564753Y-1697119D01*
G01X19564753Y-1651399D02*
G01X19570595Y-1634127D01*
G01X19582025Y-1622697D01*
G01X19593455Y-1617109D01*
G01X19610473Y-1617109D01*
G01X19658225Y-1645557D02*
G01X19761095Y-1645557D01*
G01X19808847Y-1576977D02*
G01X19808847Y-1697119D01*
G01X19808847Y-1576977D02*
G01X19860409Y-1576977D01*
G01X19877427Y-1582819D01*
G01X19883269Y-1588407D01*
G01X19888857Y-1599837D01*
G01X19888857Y-1611267D01*
G01X19883269Y-1622697D01*
G01X19877427Y-1628539D01*
G01X19860409Y-1634127D01*
G01X19808847Y-1634127D02*
G01X19860409Y-1634127D01*
G01X19877427Y-1639969D01*
G01X19883269Y-1645557D01*
G01X19888857Y-1656987D01*
G01X19888857Y-1674259D01*
G01X19883269Y-1685689D01*
G01X19877427Y-1691277D01*
G01X19860409Y-1697119D01*
G01X19808847Y-1697119D01*
G01X19965311Y-1617109D02*
G01X19953881Y-1622697D01*
G01X19942451Y-1634127D01*
G01X19936609Y-1651399D01*
G01X19936609Y-1662829D01*
G01X19942451Y-1679847D01*
G01X19953881Y-1691277D01*
G01X19965311Y-1697119D01*
G01X19982329Y-1697119D01*
G01X19993759Y-1691277D01*
G01X20005189Y-1679847D01*
G01X20011031Y-1662829D01*
G01X20011031Y-1651399D01*
G01X20005189Y-1634127D01*
G01X19993759Y-1622697D01*
G01X19982329Y-1617109D01*
G01X19965311Y-1617109D01*
G01X20076055Y-1576977D02*
G01X20076055Y-1674259D01*
G01X20081643Y-1691277D01*
G01X20093073Y-1697119D01*
G01X20104503Y-1697119D01*
G01X20058783Y-1617109D02*
G01X20098915Y-1617109D01*
G01X20169527Y-1576977D02*
G01X20169527Y-1674259D01*
G01X20175115Y-1691277D01*
G01X20186545Y-1697119D01*
G01X20197975Y-1697119D01*
G01X20152255Y-1617109D02*
G01X20192387Y-1617109D01*
G01X20274429Y-1617109D02*
G01X20262999Y-1622697D01*
G01X20251569Y-1634127D01*
G01X20245727Y-1651399D01*
G01X20245727Y-1662829D01*
G01X20251569Y-1679847D01*
G01X20262999Y-1691277D01*
G01X20274429Y-1697119D01*
G01X20291447Y-1697119D01*
G01X20302877Y-1691277D01*
G01X20314307Y-1679847D01*
G01X20320149Y-1662829D01*
G01X20320149Y-1651399D01*
G01X20314307Y-1634127D01*
G01X20302877Y-1622697D01*
G01X20291447Y-1617109D01*
G01X20274429Y-1617109D01*
G01X20367901Y-1617109D02*
G01X20367901Y-1697119D01*
G01X20367901Y-1639969D02*
G01X20385173Y-1622697D01*
G01X20396603Y-1617109D01*
G01X20413621Y-1617109D01*
G01X20425051Y-1622697D01*
G01X20430893Y-1639969D01*
G01X20430893Y-1697119D01*
G01X20430893Y-1639969D02*
G01X20447911Y-1622697D01*
G01X20459341Y-1617109D01*
G01X20476613Y-1617109D01*
G01X20488043Y-1622697D01*
G01X20493631Y-1639969D01*
G01X20493631Y-1697119D01*
G01X20669399Y-1576977D02*
G01X20669399Y-1697119D01*
G01X20669399Y-1697119D02*
G01X20737979Y-1697119D01*
G01X20854311Y-1617109D02*
G01X20854311Y-1697119D01*
G01X20854311Y-1634127D02*
G01X20842881Y-1622697D01*
G01X20831451Y-1617109D01*
G01X20814433Y-1617109D01*
G01X20803003Y-1622697D01*
G01X20791573Y-1634127D01*
G01X20785731Y-1651399D01*
G01X20785731Y-1662829D01*
G01X20791573Y-1679847D01*
G01X20803003Y-1691277D01*
G01X20814433Y-1697119D01*
G01X20831451Y-1697119D01*
G01X20842881Y-1691277D01*
G01X20854311Y-1679847D01*
G01X20907905Y-1617109D02*
G01X20942195Y-1697119D01*
G01X20976485Y-1617109D02*
G01X20942195Y-1697119D01*
G01X20930765Y-1719979D01*
G01X20919335Y-1731409D01*
G01X20907905Y-1736997D01*
G01X20902063Y-1736997D01*
G01X21024237Y-1651399D02*
G01X21092817Y-1651399D01*
G01X21092817Y-1639969D01*
G01X21087229Y-1628539D01*
G01X21081387Y-1622697D01*
G01X21069957Y-1617109D01*
G01X21052939Y-1617109D01*
G01X21041509Y-1622697D01*
G01X21030079Y-1634127D01*
G01X21024237Y-1651399D01*
G01X21024237Y-1662829D01*
G01X21030079Y-1679847D01*
G01X21041509Y-1691277D01*
G01X21052939Y-1697119D01*
G01X21069957Y-1697119D01*
G01X21081387Y-1691277D01*
G01X21092817Y-1679847D01*
G01X21140569Y-1617109D02*
G01X21140569Y-1697119D01*
G01X21140569Y-1651399D02*
G01X21146411Y-1634127D01*
G01X21157841Y-1622697D01*
G01X21169271Y-1617109D01*
G01X21186289Y-1617109D01*
G01X6930176Y-2157549D02*
G01X6912904Y-2163391D01*
G01X6907316Y-2174821D01*
G01X6907316Y-2186251D01*
G01X6912904Y-2197681D01*
G01X6924334Y-2203269D01*
G01X6947194Y-2209111D01*
G01X6964466Y-2214699D01*
G01X6975896Y-2226129D01*
G01X6981484Y-2237559D01*
G01X6981484Y-2254831D01*
G01X6975896Y-2266261D01*
G01X6970054Y-2271849D01*
G01X6953036Y-2277691D01*
G01X6930176Y-2277691D01*
G01X6912904Y-2271849D01*
G01X6907316Y-2266261D01*
G01X6901474Y-2254831D01*
G01X6901474Y-2237559D01*
G01X6907316Y-2226129D01*
G01X6918746Y-2214699D01*
G01X6935764Y-2209111D01*
G01X6958624Y-2203269D01*
G01X6970054Y-2197681D01*
G01X6975896Y-2186251D01*
G01X6975896Y-2174821D01*
G01X6970054Y-2163391D01*
G01X6953036Y-2157549D01*
G01X6930176Y-2157549D01*
G01X8372787Y-2157549D02*
G01X8315637Y-2237559D01*
G01X8401489Y-2237559D01*
G01X8372787Y-2157549D02*
G01X8372787Y-2277691D01*
G01X8529251Y-2157549D02*
G01X8472101Y-2277691D01*
G01X8449241Y-2157549D02*
G01X8529251Y-2157549D01*
G01X8582845Y-2248989D02*
G01X8577003Y-2254831D01*
G01X8582845Y-2260419D01*
G01X8588433Y-2254831D01*
G01X8582845Y-2248989D01*
G01X8642027Y-2186251D02*
G01X8642027Y-2180409D01*
G01X8647615Y-2168979D01*
G01X8653457Y-2163391D01*
G01X8664887Y-2157549D01*
G01X8687747Y-2157549D01*
G01X8699177Y-2163391D01*
G01X8704765Y-2168979D01*
G01X8710607Y-2180409D01*
G01X8710607Y-2191839D01*
G01X8704765Y-2203269D01*
G01X8693335Y-2220541D01*
G01X8636185Y-2277691D01*
G01X8716195Y-2277691D01*
G01X8763947Y-2197681D02*
G01X8826939Y-2277691D01*
G01X8826939Y-2197681D02*
G01X8763947Y-2277691D01*
G01X8931841Y-2157549D02*
G01X8874691Y-2237559D01*
G01X8960543Y-2237559D01*
G01X8931841Y-2157549D02*
G01X8931841Y-2277691D01*
G01X9088305Y-2157549D02*
G01X9031155Y-2277691D01*
G01X9008295Y-2157549D02*
G01X9088305Y-2157549D01*
G01X9141899Y-2248989D02*
G01X9136057Y-2254831D01*
G01X9141899Y-2260419D01*
G01X9147487Y-2254831D01*
G01X9141899Y-2248989D01*
G01X9201081Y-2186251D02*
G01X9201081Y-2180409D01*
G01X9206669Y-2168979D01*
G01X9212511Y-2163391D01*
G01X9223941Y-2157549D01*
G01X9246801Y-2157549D01*
G01X9258231Y-2163391D01*
G01X9263819Y-2168979D01*
G01X9269661Y-2180409D01*
G01X9269661Y-2191839D01*
G01X9263819Y-2203269D01*
G01X9252389Y-2220541D01*
G01X9195239Y-2277691D01*
G01X9275249Y-2277691D01*
G01X9323001Y-2197681D02*
G01X9323001Y-2277691D01*
G01X9323001Y-2220541D02*
G01X9340273Y-2203269D01*
G01X9351703Y-2197681D01*
G01X9368721Y-2197681D01*
G01X9380151Y-2203269D01*
G01X9385993Y-2220541D01*
G01X9385993Y-2277691D01*
G01X9385993Y-2220541D02*
G01X9403011Y-2203269D01*
G01X9414441Y-2197681D01*
G01X9431713Y-2197681D01*
G01X9443143Y-2203269D01*
G01X9448731Y-2220541D01*
G01X9448731Y-2277691D01*
G01X9496483Y-2157549D02*
G01X9502325Y-2163391D01*
G01X9507913Y-2157549D01*
G01X9502325Y-2151961D01*
G01X9496483Y-2157549D01*
G01X9502325Y-2197681D02*
G01X9502325Y-2277691D01*
G01X9555665Y-2157549D02*
G01X9555665Y-2277691D01*
G01X9643549Y-2134689D02*
G01X9632119Y-2146119D01*
G01X9620689Y-2163391D01*
G01X9609259Y-2186251D01*
G01X9603417Y-2214699D01*
G01X9603417Y-2237559D01*
G01X9609259Y-2266261D01*
G01X9620689Y-2289121D01*
G01X9632119Y-2306139D01*
G01X9643549Y-2317569D01*
G01X9691301Y-2180409D02*
G01X9702731Y-2174821D01*
G01X9720003Y-2157549D01*
G01X9720003Y-2277691D01*
G01X9773597Y-2248989D02*
G01X9767755Y-2254831D01*
G01X9773597Y-2260419D01*
G01X9779185Y-2254831D01*
G01X9773597Y-2248989D01*
G01X9832779Y-2186251D02*
G01X9832779Y-2180409D01*
G01X9838367Y-2168979D01*
G01X9844209Y-2163391D01*
G01X9855639Y-2157549D01*
G01X9878499Y-2157549D01*
G01X9889929Y-2163391D01*
G01X9895517Y-2168979D01*
G01X9901359Y-2180409D01*
G01X9901359Y-2191839D01*
G01X9895517Y-2203269D01*
G01X9884087Y-2220541D01*
G01X9826937Y-2277691D01*
G01X9906947Y-2277691D01*
G01X9988989Y-2157549D02*
G01X9971971Y-2163391D01*
G01X9960541Y-2180409D01*
G01X9954699Y-2209111D01*
G01X9954699Y-2226129D01*
G01X9960541Y-2254831D01*
G01X9971971Y-2271849D01*
G01X9988989Y-2277691D01*
G01X10000419Y-2277691D01*
G01X10017691Y-2271849D01*
G01X10029121Y-2254831D01*
G01X10034709Y-2226129D01*
G01X10034709Y-2209111D01*
G01X10029121Y-2180409D01*
G01X10017691Y-2163391D01*
G01X10000419Y-2157549D01*
G01X9988989Y-2157549D01*
G01X10116751Y-2157549D02*
G01X10099733Y-2163391D01*
G01X10088303Y-2180409D01*
G01X10082461Y-2209111D01*
G01X10082461Y-2226129D01*
G01X10088303Y-2254831D01*
G01X10099733Y-2271849D01*
G01X10116751Y-2277691D01*
G01X10128181Y-2277691D01*
G01X10145453Y-2271849D01*
G01X10156883Y-2254831D01*
G01X10162471Y-2226129D01*
G01X10162471Y-2209111D01*
G01X10156883Y-2180409D01*
G01X10145453Y-2163391D01*
G01X10128181Y-2157549D01*
G01X10116751Y-2157549D01*
G01X10210223Y-2197681D02*
G01X10273215Y-2277691D01*
G01X10273215Y-2197681D02*
G01X10210223Y-2277691D01*
G01X10320967Y-2180409D02*
G01X10332397Y-2174821D01*
G01X10349669Y-2157549D01*
G01X10349669Y-2277691D01*
G01X10403263Y-2248989D02*
G01X10397421Y-2254831D01*
G01X10403263Y-2260419D01*
G01X10408851Y-2254831D01*
G01X10403263Y-2248989D01*
G01X10462445Y-2186251D02*
G01X10462445Y-2180409D01*
G01X10468033Y-2168979D01*
G01X10473875Y-2163391D01*
G01X10485305Y-2157549D01*
G01X10508165Y-2157549D01*
G01X10519595Y-2163391D01*
G01X10525183Y-2168979D01*
G01X10531025Y-2180409D01*
G01X10531025Y-2191839D01*
G01X10525183Y-2203269D01*
G01X10513753Y-2220541D01*
G01X10456603Y-2277691D01*
G01X10536613Y-2277691D01*
G01X10618655Y-2157549D02*
G01X10601637Y-2163391D01*
G01X10590207Y-2180409D01*
G01X10584365Y-2209111D01*
G01X10584365Y-2226129D01*
G01X10590207Y-2254831D01*
G01X10601637Y-2271849D01*
G01X10618655Y-2277691D01*
G01X10630085Y-2277691D01*
G01X10647357Y-2271849D01*
G01X10658787Y-2254831D01*
G01X10664375Y-2226129D01*
G01X10664375Y-2209111D01*
G01X10658787Y-2180409D01*
G01X10647357Y-2163391D01*
G01X10630085Y-2157549D01*
G01X10618655Y-2157549D01*
G01X10746417Y-2157549D02*
G01X10729399Y-2163391D01*
G01X10717969Y-2180409D01*
G01X10712127Y-2209111D01*
G01X10712127Y-2226129D01*
G01X10717969Y-2254831D01*
G01X10729399Y-2271849D01*
G01X10746417Y-2277691D01*
G01X10757847Y-2277691D01*
G01X10775119Y-2271849D01*
G01X10786549Y-2254831D01*
G01X10792137Y-2226129D01*
G01X10792137Y-2209111D01*
G01X10786549Y-2180409D01*
G01X10775119Y-2163391D01*
G01X10757847Y-2157549D01*
G01X10746417Y-2157549D01*
G01X10839889Y-2197681D02*
G01X10839889Y-2277691D01*
G01X10839889Y-2220541D02*
G01X10857161Y-2203269D01*
G01X10868591Y-2197681D01*
G01X10885609Y-2197681D01*
G01X10897039Y-2203269D01*
G01X10902881Y-2220541D01*
G01X10902881Y-2277691D01*
G01X10902881Y-2220541D02*
G01X10919899Y-2203269D01*
G01X10931329Y-2197681D01*
G01X10948601Y-2197681D01*
G01X10960031Y-2203269D01*
G01X10965619Y-2220541D01*
G01X10965619Y-2277691D01*
G01X11013371Y-2197681D02*
G01X11013371Y-2277691D01*
G01X11013371Y-2220541D02*
G01X11030643Y-2203269D01*
G01X11042073Y-2197681D01*
G01X11059091Y-2197681D01*
G01X11070521Y-2203269D01*
G01X11076363Y-2220541D01*
G01X11076363Y-2277691D01*
G01X11076363Y-2220541D02*
G01X11093381Y-2203269D01*
G01X11104811Y-2197681D01*
G01X11122083Y-2197681D01*
G01X11133513Y-2203269D01*
G01X11139101Y-2220541D01*
G01X11139101Y-2277691D01*
G01X11186853Y-2134689D02*
G01X11198283Y-2146119D01*
G01X11209713Y-2163391D01*
G01X11221143Y-2186251D01*
G01X11226985Y-2214699D01*
G01X11226985Y-2237559D01*
G01X11221143Y-2266261D01*
G01X11209713Y-2289121D01*
G01X11198283Y-2306139D01*
G01X11186853Y-2317569D01*
G01X12118163Y-2157549D02*
G01X12118163Y-2277691D01*
G01X12118163Y-2157549D02*
G01X12169725Y-2157549D01*
G01X12186743Y-2163391D01*
G01X12192585Y-2168979D01*
G01X12198173Y-2180409D01*
G01X12198173Y-2197681D01*
G01X12192585Y-2209111D01*
G01X12186743Y-2214699D01*
G01X12169725Y-2220541D01*
G01X12118163Y-2220541D01*
G01X12286057Y-2157549D02*
G01X12286057Y-2277691D01*
G01X12245925Y-2157549D02*
G01X12325935Y-2157549D01*
G01X12373687Y-2157549D02*
G01X12373687Y-2277691D01*
G01X12453697Y-2157549D02*
G01X12453697Y-2277691D01*
G01X12373687Y-2214699D02*
G01X12453697Y-2214699D01*
G01X13579570Y-2157549D02*
G01X13579570Y-2277691D01*
G01X13579570Y-2157549D02*
G01X13631132Y-2157549D01*
G01X13648150Y-2163391D01*
G01X13653992Y-2168979D01*
G01X13659580Y-2180409D01*
G01X13659580Y-2191839D01*
G01X13653992Y-2203269D01*
G01X13648150Y-2209111D01*
G01X13631132Y-2214699D01*
G01X13579570Y-2214699D01*
G01X13619702Y-2214699D02*
G01X13659580Y-2277691D01*
G01X13736034Y-2197681D02*
G01X13724604Y-2203269D01*
G01X13713174Y-2214699D01*
G01X13707332Y-2231971D01*
G01X13707332Y-2243401D01*
G01X13713174Y-2260419D01*
G01X13724604Y-2271849D01*
G01X13736034Y-2277691D01*
G01X13753052Y-2277691D01*
G01X13764482Y-2271849D01*
G01X13775912Y-2260419D01*
G01X13781754Y-2243401D01*
G01X13781754Y-2231971D01*
G01X13775912Y-2214699D01*
G01X13764482Y-2203269D01*
G01X13753052Y-2197681D01*
G01X13736034Y-2197681D01*
G01X13829506Y-2197681D02*
G01X13829506Y-2254831D01*
G01X13835348Y-2271849D01*
G01X13846778Y-2277691D01*
G01X13863796Y-2277691D01*
G01X13875226Y-2271849D01*
G01X13892498Y-2254831D01*
G01X13892498Y-2197681D02*
G01X13892498Y-2277691D01*
G01X13940250Y-2197681D02*
G01X13940250Y-2277691D01*
G01X13940250Y-2220541D02*
G01X13957522Y-2203269D01*
G01X13968952Y-2197681D01*
G01X13985970Y-2197681D01*
G01X13997400Y-2203269D01*
G01X14003242Y-2220541D01*
G01X14003242Y-2277691D01*
G01X14119574Y-2157549D02*
G01X14119574Y-2277691D01*
G01X14119574Y-2214699D02*
G01X14108144Y-2203269D01*
G01X14096714Y-2197681D01*
G01X14079696Y-2197681D01*
G01X14068266Y-2203269D01*
G01X14056836Y-2214699D01*
G01X14050994Y-2231971D01*
G01X14050994Y-2243401D01*
G01X14056836Y-2260419D01*
G01X14068266Y-2271849D01*
G01X14079696Y-2277691D01*
G01X14096714Y-2277691D01*
G01X14108144Y-2271849D01*
G01X14119574Y-2260419D01*
G01X15010751Y-2157549D02*
G01X15010751Y-2277691D01*
G01X15010751Y-2157549D02*
G01X15062313Y-2157549D01*
G01X15079331Y-2163391D01*
G01X15085173Y-2168979D01*
G01X15090761Y-2180409D01*
G01X15090761Y-2197681D01*
G01X15085173Y-2209111D01*
G01X15079331Y-2214699D01*
G01X15062313Y-2220541D01*
G01X15010751Y-2220541D01*
G01X15207093Y-2197681D02*
G01X15207093Y-2277691D01*
G01X15207093Y-2214699D02*
G01X15195663Y-2203269D01*
G01X15184233Y-2197681D01*
G01X15167215Y-2197681D01*
G01X15155785Y-2203269D01*
G01X15144355Y-2214699D01*
G01X15138513Y-2231971D01*
G01X15138513Y-2243401D01*
G01X15144355Y-2260419D01*
G01X15155785Y-2271849D01*
G01X15167215Y-2277691D01*
G01X15184233Y-2277691D01*
G01X15195663Y-2271849D01*
G01X15207093Y-2260419D01*
G01X15323425Y-2157549D02*
G01X15323425Y-2277691D01*
G01X15323425Y-2214699D02*
G01X15311995Y-2203269D01*
G01X15300565Y-2197681D01*
G01X15283547Y-2197681D01*
G01X15272117Y-2203269D01*
G01X15260687Y-2214699D01*
G01X15254845Y-2231971D01*
G01X15254845Y-2243401D01*
G01X15260687Y-2260419D01*
G01X15272117Y-2271849D01*
G01X15283547Y-2277691D01*
G01X15300565Y-2277691D01*
G01X15311995Y-2271849D01*
G01X15323425Y-2260419D01*
G01X16720062Y-2134689D02*
G01X16708632Y-2146119D01*
G01X16697202Y-2163391D01*
G01X16685772Y-2186251D01*
G01X16679930Y-2214699D01*
G01X16679930Y-2237559D01*
G01X16685772Y-2266261D01*
G01X16697202Y-2289121D01*
G01X16708632Y-2306139D01*
G01X16720062Y-2317569D01*
G01X16767814Y-2157549D02*
G01X16767814Y-2277691D01*
G01X16767814Y-2157549D02*
G01X16813534Y-2277691D01*
G01X16859254Y-2157549D02*
G01X16813534Y-2277691D01*
G01X16859254Y-2157549D02*
G01X16859254Y-2277691D01*
G01X16907006Y-2157549D02*
G01X16912848Y-2163391D01*
G01X16918436Y-2157549D01*
G01X16912848Y-2151961D01*
G01X16907006Y-2157549D01*
G01X16912848Y-2197681D02*
G01X16912848Y-2277691D01*
G01X16966188Y-2197681D02*
G01X17029180Y-2277691D01*
G01X17029180Y-2197681D02*
G01X16966188Y-2277691D01*
G01X17076932Y-2231971D02*
G01X17145512Y-2231971D01*
G01X17145512Y-2220541D01*
G01X17139924Y-2209111D01*
G01X17134082Y-2203269D01*
G01X17122652Y-2197681D01*
G01X17105634Y-2197681D01*
G01X17094204Y-2203269D01*
G01X17082774Y-2214699D01*
G01X17076932Y-2231971D01*
G01X17076932Y-2243401D01*
G01X17082774Y-2260419D01*
G01X17094204Y-2271849D01*
G01X17105634Y-2277691D01*
G01X17122652Y-2277691D01*
G01X17134082Y-2271849D01*
G01X17145512Y-2260419D01*
G01X17261844Y-2157549D02*
G01X17261844Y-2277691D01*
G01X17261844Y-2214699D02*
G01X17250414Y-2203269D01*
G01X17238984Y-2197681D01*
G01X17221966Y-2197681D01*
G01X17210536Y-2203269D01*
G01X17199106Y-2214699D01*
G01X17193264Y-2231971D01*
G01X17193264Y-2243401D01*
G01X17199106Y-2260419D01*
G01X17210536Y-2271849D01*
G01X17221966Y-2277691D01*
G01X17238984Y-2277691D01*
G01X17250414Y-2271849D01*
G01X17261844Y-2260419D01*
G01X17309596Y-2134689D02*
G01X17321026Y-2146119D01*
G01X17332456Y-2163391D01*
G01X17343886Y-2186251D01*
G01X17349728Y-2214699D01*
G01X17349728Y-2237559D01*
G01X17343886Y-2266261D01*
G01X17332456Y-2289121D01*
G01X17321026Y-2306139D01*
G01X17309596Y-2317569D01*
G01X18639431Y-2157549D02*
G01X18639431Y-2277691D01*
G01X18599299Y-2157549D02*
G01X18679309Y-2157549D01*
G01X18755763Y-2197681D02*
G01X18744333Y-2203269D01*
G01X18732903Y-2214699D01*
G01X18727061Y-2231971D01*
G01X18727061Y-2243401D01*
G01X18732903Y-2260419D01*
G01X18744333Y-2271849D01*
G01X18755763Y-2277691D01*
G01X18772781Y-2277691D01*
G01X18784211Y-2271849D01*
G01X18795641Y-2260419D01*
G01X18801483Y-2243401D01*
G01X18801483Y-2231971D01*
G01X18795641Y-2214699D01*
G01X18784211Y-2203269D01*
G01X18772781Y-2197681D01*
G01X18755763Y-2197681D01*
G01X18849235Y-2197681D02*
G01X18849235Y-2317569D01*
G01X18849235Y-2214699D02*
G01X18860665Y-2203269D01*
G01X18872095Y-2197681D01*
G01X18889367Y-2197681D01*
G01X18900797Y-2203269D01*
G01X18912227Y-2214699D01*
G01X18917815Y-2231971D01*
G01X18917815Y-2243401D01*
G01X18912227Y-2260419D01*
G01X18900797Y-2271849D01*
G01X18889367Y-2277691D01*
G01X18872095Y-2277691D01*
G01X18860665Y-2271849D01*
G01X18849235Y-2260419D01*
G01X19093583Y-2157549D02*
G01X19093583Y-2277691D01*
G01X19093583Y-2277691D02*
G01X19162163Y-2277691D01*
G01X19278495Y-2197681D02*
G01X19278495Y-2277691D01*
G01X19278495Y-2214699D02*
G01X19267065Y-2203269D01*
G01X19255635Y-2197681D01*
G01X19238617Y-2197681D01*
G01X19227187Y-2203269D01*
G01X19215757Y-2214699D01*
G01X19209915Y-2231971D01*
G01X19209915Y-2243401D01*
G01X19215757Y-2260419D01*
G01X19227187Y-2271849D01*
G01X19238617Y-2277691D01*
G01X19255635Y-2277691D01*
G01X19267065Y-2271849D01*
G01X19278495Y-2260419D01*
G01X19332089Y-2197681D02*
G01X19366379Y-2277691D01*
G01X19400669Y-2197681D02*
G01X19366379Y-2277691D01*
G01X19354949Y-2300551D01*
G01X19343519Y-2311981D01*
G01X19332089Y-2317569D01*
G01X19326247Y-2317569D01*
G01X19448421Y-2231971D02*
G01X19517001Y-2231971D01*
G01X19517001Y-2220541D01*
G01X19511413Y-2209111D01*
G01X19505571Y-2203269D01*
G01X19494141Y-2197681D01*
G01X19477123Y-2197681D01*
G01X19465693Y-2203269D01*
G01X19454263Y-2214699D01*
G01X19448421Y-2231971D01*
G01X19448421Y-2243401D01*
G01X19454263Y-2260419D01*
G01X19465693Y-2271849D01*
G01X19477123Y-2277691D01*
G01X19494141Y-2277691D01*
G01X19505571Y-2271849D01*
G01X19517001Y-2260419D01*
G01X19564753Y-2197681D02*
G01X19564753Y-2277691D01*
G01X19564753Y-2231971D02*
G01X19570595Y-2214699D01*
G01X19582025Y-2203269D01*
G01X19593455Y-2197681D01*
G01X19610473Y-2197681D01*
G01X19658225Y-2226129D02*
G01X19761095Y-2226129D01*
G01X19808847Y-2157549D02*
G01X19808847Y-2277691D01*
G01X19808847Y-2157549D02*
G01X19860409Y-2157549D01*
G01X19877427Y-2163391D01*
G01X19883269Y-2168979D01*
G01X19888857Y-2180409D01*
G01X19888857Y-2191839D01*
G01X19883269Y-2203269D01*
G01X19877427Y-2209111D01*
G01X19860409Y-2214699D01*
G01X19808847Y-2214699D02*
G01X19860409Y-2214699D01*
G01X19877427Y-2220541D01*
G01X19883269Y-2226129D01*
G01X19888857Y-2237559D01*
G01X19888857Y-2254831D01*
G01X19883269Y-2266261D01*
G01X19877427Y-2271849D01*
G01X19860409Y-2277691D01*
G01X19808847Y-2277691D01*
G01X19965311Y-2197681D02*
G01X19953881Y-2203269D01*
G01X19942451Y-2214699D01*
G01X19936609Y-2231971D01*
G01X19936609Y-2243401D01*
G01X19942451Y-2260419D01*
G01X19953881Y-2271849D01*
G01X19965311Y-2277691D01*
G01X19982329Y-2277691D01*
G01X19993759Y-2271849D01*
G01X20005189Y-2260419D01*
G01X20011031Y-2243401D01*
G01X20011031Y-2231971D01*
G01X20005189Y-2214699D01*
G01X19993759Y-2203269D01*
G01X19982329Y-2197681D01*
G01X19965311Y-2197681D01*
G01X20076055Y-2157549D02*
G01X20076055Y-2254831D01*
G01X20081643Y-2271849D01*
G01X20093073Y-2277691D01*
G01X20104503Y-2277691D01*
G01X20058783Y-2197681D02*
G01X20098915Y-2197681D01*
G01X20169527Y-2157549D02*
G01X20169527Y-2254831D01*
G01X20175115Y-2271849D01*
G01X20186545Y-2277691D01*
G01X20197975Y-2277691D01*
G01X20152255Y-2197681D02*
G01X20192387Y-2197681D01*
G01X20274429Y-2197681D02*
G01X20262999Y-2203269D01*
G01X20251569Y-2214699D01*
G01X20245727Y-2231971D01*
G01X20245727Y-2243401D01*
G01X20251569Y-2260419D01*
G01X20262999Y-2271849D01*
G01X20274429Y-2277691D01*
G01X20291447Y-2277691D01*
G01X20302877Y-2271849D01*
G01X20314307Y-2260419D01*
G01X20320149Y-2243401D01*
G01X20320149Y-2231971D01*
G01X20314307Y-2214699D01*
G01X20302877Y-2203269D01*
G01X20291447Y-2197681D01*
G01X20274429Y-2197681D01*
G01X20367901Y-2197681D02*
G01X20367901Y-2277691D01*
G01X20367901Y-2220541D02*
G01X20385173Y-2203269D01*
G01X20396603Y-2197681D01*
G01X20413621Y-2197681D01*
G01X20425051Y-2203269D01*
G01X20430893Y-2220541D01*
G01X20430893Y-2277691D01*
G01X20430893Y-2220541D02*
G01X20447911Y-2203269D01*
G01X20459341Y-2197681D01*
G01X20476613Y-2197681D01*
G01X20488043Y-2203269D01*
G01X20493631Y-2220541D01*
G01X20493631Y-2277691D01*
G01X20669399Y-2157549D02*
G01X20669399Y-2277691D01*
G01X20669399Y-2277691D02*
G01X20737979Y-2277691D01*
G01X20854311Y-2197681D02*
G01X20854311Y-2277691D01*
G01X20854311Y-2214699D02*
G01X20842881Y-2203269D01*
G01X20831451Y-2197681D01*
G01X20814433Y-2197681D01*
G01X20803003Y-2203269D01*
G01X20791573Y-2214699D01*
G01X20785731Y-2231971D01*
G01X20785731Y-2243401D01*
G01X20791573Y-2260419D01*
G01X20803003Y-2271849D01*
G01X20814433Y-2277691D01*
G01X20831451Y-2277691D01*
G01X20842881Y-2271849D01*
G01X20854311Y-2260419D01*
G01X20907905Y-2197681D02*
G01X20942195Y-2277691D01*
G01X20976485Y-2197681D02*
G01X20942195Y-2277691D01*
G01X20930765Y-2300551D01*
G01X20919335Y-2311981D01*
G01X20907905Y-2317569D01*
G01X20902063Y-2317569D01*
G01X21024237Y-2231971D02*
G01X21092817Y-2231971D01*
G01X21092817Y-2220541D01*
G01X21087229Y-2209111D01*
G01X21081387Y-2203269D01*
G01X21069957Y-2197681D01*
G01X21052939Y-2197681D01*
G01X21041509Y-2203269D01*
G01X21030079Y-2214699D01*
G01X21024237Y-2231971D01*
G01X21024237Y-2243401D01*
G01X21030079Y-2260419D01*
G01X21041509Y-2271849D01*
G01X21052939Y-2277691D01*
G01X21069957Y-2277691D01*
G01X21081387Y-2271849D01*
G01X21092817Y-2260419D01*
G01X21140569Y-2197681D02*
G01X21140569Y-2277691D01*
G01X21140569Y-2231971D02*
G01X21146411Y-2214699D01*
G01X21157841Y-2203269D01*
G01X21169271Y-2197681D01*
G01X21186289Y-2197681D01*

G04 Image Start*
G36*
G01X5607869Y-2384999D02*
G01X5600129Y-2385587D01*
G01X5592286Y-2385786D01*
G01X5584443Y-2385587D01*
G01X5576702Y-2384999D01*
G01X5569075Y-2384030D01*
G01X5561570Y-2382690D01*
G01X5546964Y-2378935D01*
G01X5532962Y-2373810D01*
G01X5519640Y-2367393D01*
G01X5507074Y-2359760D01*
G01X5495342Y-2350987D01*
G01X5484520Y-2341152D01*
G01X5474684Y-2330329D01*
G01X5465911Y-2318597D01*
G01X5458278Y-2306032D01*
G01X5451861Y-2292710D01*
G01X5446737Y-2278708D01*
G01X5442982Y-2264102D01*
G01X5441642Y-2256596D01*
G01X5440672Y-2248969D01*
G01X5440084Y-2241229D01*
G01X5439886Y-2233386D01*
G01X5465286Y-2233386D01*
G01X5465943Y-2246352D01*
G01X5467870Y-2258948D01*
G01X5471005Y-2271110D01*
G01X5475282Y-2282772D01*
G01X5480637Y-2293872D01*
G01X5487005Y-2304343D01*
G01X5494323Y-2314123D01*
G01X5502525Y-2323146D01*
G01X5511549Y-2331349D01*
G01X5521328Y-2338666D01*
G01X5531800Y-2345035D01*
G01X5542899Y-2350390D01*
G01X5554562Y-2354666D01*
G01X5566723Y-2357801D01*
G01X5566723Y-2357801D01*
G01X5579319Y-2359729D01*
G01X5592286Y-2360386D01*
G01X5605252Y-2359729D01*
G01X5617848Y-2357801D01*
G01X5630010Y-2354666D01*
G01X5641672Y-2350390D01*
G01X5652772Y-2345035D01*
G01X5663243Y-2338666D01*
G01X5673023Y-2331349D01*
G01X5682046Y-2323146D01*
G01X5690249Y-2314123D01*
G01X5697566Y-2304343D01*
G01X5703935Y-2293872D01*
G01X5709290Y-2282772D01*
G01X5713566Y-2271110D01*
G01X5716701Y-2258948D01*
G01X5718629Y-2246352D01*
G01X5719286Y-2233386D01*
G01X5718629Y-2220419D01*
G01X5716701Y-2207823D01*
G01X5713566Y-2195662D01*
G01X5709290Y-2183999D01*
G01X5703935Y-2172900D01*
G01X5697566Y-2162428D01*
G01X5690249Y-2152649D01*
G01X5682046Y-2143625D01*
G01X5673023Y-2135423D01*
G01X5663243Y-2128105D01*
G01X5652772Y-2121737D01*
G01X5641672Y-2116382D01*
G01X5630010Y-2112105D01*
G01X5617848Y-2108971D01*
G01X5605252Y-2107043D01*
G01X5592286Y-2106386D01*
G01X5579319Y-2107043D01*
G01X5566723Y-2108971D01*
G01X5554562Y-2112105D01*
G01X5542899Y-2116382D01*
G01X5531800Y-2121737D01*
G01X5521328Y-2128105D01*
G01X5511549Y-2135423D01*
G01X5502525Y-2143625D01*
G01X5494323Y-2152649D01*
G01X5487005Y-2162428D01*
G01X5480637Y-2172900D01*
G01X5475282Y-2183999D01*
G01X5471005Y-2195662D01*
G01X5467870Y-2207823D01*
G01X5465943Y-2220419D01*
G01X5465286Y-2233386D01*
G01X5439886Y-2233386D01*
G01X5440084Y-2225543D01*
G01X5440672Y-2217802D01*
G01X5441642Y-2210175D01*
G01X5442982Y-2202670D01*
G01X5446737Y-2188064D01*
G01X5451861Y-2174062D01*
G01X5458278Y-2160740D01*
G01X5465911Y-2148174D01*
G01X5474684Y-2136442D01*
G01X5484520Y-2125620D01*
G01X5495342Y-2115784D01*
G01X5507074Y-2107011D01*
G01X5519640Y-2099378D01*
G01X5532962Y-2092961D01*
G01X5546964Y-2087837D01*
G01X5561570Y-2084082D01*
G01X5569075Y-2082742D01*
G01X5576702Y-2081772D01*
G01X5584443Y-2081184D01*
G01X5592286Y-2080986D01*
G01X5600129Y-2081184D01*
G01X5607869Y-2081772D01*
G01X5615496Y-2082742D01*
G01X5623002Y-2084082D01*
G01X5637608Y-2087837D01*
G01X5651610Y-2092961D01*
G01X5664932Y-2099378D01*
G01X5677497Y-2107011D01*
G01X5689229Y-2115784D01*
G01X5700052Y-2125620D01*
G01X5709887Y-2136442D01*
G01X5718660Y-2148174D01*
G01X5726293Y-2160740D01*
G01X5732710Y-2174062D01*
G01X5737835Y-2188064D01*
G01X5741590Y-2202670D01*
G01X5742930Y-2210175D01*
G01X5743899Y-2217802D01*
G01X5744487Y-2225543D01*
G01X5744686Y-2233386D01*
G01X5744487Y-2241229D01*
G01X5743899Y-2248969D01*
G01X5742930Y-2256596D01*
G01X5741590Y-2264102D01*
G01X5737835Y-2278708D01*
G01X5732710Y-2292710D01*
G01X5726293Y-2306032D01*
G01X5718660Y-2318597D01*
G01X5709887Y-2330329D01*
G01X5700052Y-2341152D01*
G01X5689229Y-2350987D01*
G01X5677497Y-2359760D01*
G01X5664932Y-2367393D01*
G01X5651610Y-2373810D01*
G01X5637608Y-2378935D01*
G01X5623002Y-2382690D01*
G01X5615496Y-2384030D01*
G01X5607869Y-2384999D01*
G37*
G36*
G01X5439886Y-1500414D02*
G01X5719286Y-1500414D01*
G01X5719286Y-1779814D01*
G01X5439886Y-1779814D01*
G01X5439886Y-1525814D01*
G01X5465286Y-1525814D01*
G01X5465286Y-1754414D01*
G01X5693886Y-1754414D01*
G01X5693886Y-1525814D01*
G01X5693886Y-1525814D01*
G01X5465286Y-1525814D01*
G01X5439886Y-1525814D01*
G01X5439886Y-1500414D01*
G37*

G04 PolygonModel Start*
G54D13*
G01X5149600Y-2516414D02*
G01X21777021Y-2516414D01*
G01X5149600Y-1935843D02*
G01X21777021Y-1935843D01*
G01X5149600Y-1355271D02*
G01X21777021Y-1355271D01*
G01X5149600Y-774700D02*
G01X21777021Y-774700D01*
G01X5149600Y-774700D02*
G01X5149600Y-2491014D01*
G01X6601029Y-774700D02*
G01X6601029Y-2491014D01*
G01X8015192Y-774700D02*
G01X8015192Y-2491014D01*
G01X11817717Y-774700D02*
G01X11817717Y-2491014D01*
G01X13279124Y-774700D02*
G01X13279124Y-2491014D01*
G01X14710305Y-774700D02*
G01X14710305Y-2491014D01*
G01X16379484Y-774700D02*
G01X16379484Y-2491014D01*
G01X18298853Y-774700D02*
G01X18298853Y-2491014D01*
G01X21777021Y-774700D02*
G01X21777021Y-2491014D01*

M02*

