G04 Layer: TopPasteMaskLayer*
G04 EasyEDA Pro v3.2.148, 2026-08-31 06:39:05*
G04 Gerber Generator version 0.3*
G04 Scale: 100 percent, Rotated: No, Reflected: No*
G04 Dimensions in millimeters*
G04 Leading zeros omitted, absolute positions, 4 integers and 5 decimals*
G04 Generated by one-click*
G04 Object Configs: Pad,Via,Track,Text,Image,Dimension,BoardOutline,BoardCutout,CopperFilled,SolidRegion,FPCStiffener,Line,PlaneZone,ComponentProperty,ComponentSilkscreen,TearDrop*
G04 Layer Configs: 1,2,3,4,5,6,7,8,9,10,11,13,14,56*
G04 Copper Areas: 0*
%FSLAX45Y45*%
%MOMM*%
%ADD10R,0.5X0.54*%
%ADD11R,0.8X0.8*%
%ADD12O,1.8X0.58801*%
%ADD13R,1.27X0.635*%
%ADD14C,0.8160*%
G75*


G04 PolygonModel Start*
G36*
G01X1414902Y-1453601D02*
G01X1419901Y-1458603D01*
G01X1419901Y-1538602D01*
G01X1414902Y-1543601D01*
G01X1334902Y-1543601D01*
G01X1329901Y-1538602D01*
G01X1329901Y-1514399D01*
G01X1366901Y-1514399D01*
G01X1366901Y-1481399D01*
G01X1329901Y-1481399D01*
G01X1329901Y-1458603D01*
G01X1334902Y-1453601D01*
G01X1414902Y-1453601D01*
G37*
G36*
G01X1175898Y-1543599D02*
G01X1170899Y-1538597D01*
G01X1170899Y-1458598D01*
G01X1175898Y-1453599D01*
G01X1255898Y-1453599D01*
G01X1260899Y-1458598D01*
G01X1260899Y-1482801D01*
G01X1223899Y-1482801D01*
G01X1223899Y-1515801D01*
G01X1260899Y-1515801D01*
G01X1260899Y-1538597D01*
G01X1255898Y-1543599D01*
G01X1175898Y-1543599D01*
G37*

G04 Pad Start*
G54D10*
G01X1964588Y-927100D03*
G01X2048612Y-927100D03*
G54D11*
G01X1220399Y-1270005D03*
G01X1370411Y-1270005D03*
G54D12*
G01X2266594Y-1473200D03*
G01X2266594Y-1346200D03*
G01X2266594Y-1219200D03*
G01X2266594Y-1092200D03*
G01X1746606Y-1473200D03*
G01X1746606Y-1346200D03*
G01X1746606Y-1219200D03*
G01X1746606Y-1092200D03*
G54D13*
G01X1554723Y-1447435D03*
G01X1554723Y-1549035D03*
G04 Pad End*

M02*

