G04 Layer: BottomLayer*
G04 EasyEDA Pro v3.2.148, 2026-08-31 06:39:05*
G04 Gerber Generator version 0.3*
G04 Scale: 100 percent, Rotated: No, Reflected: No*
G04 Dimensions in millimeters*
G04 Leading zeros omitted, absolute positions, 4 integers and 5 decimals*
G04 Generated by one-click*
G04 Object Configs: Pad,Via,Track,Text,Image,Dimension,BoardOutline,BoardCutout,CopperFilled,SolidRegion,FPCStiffener,Line,PlaneZone,ComponentProperty,ComponentSilkscreen,TearDrop*
G04 Layer Configs: 1,2,3,4,5,6,7,8,9,10,11,13,14,56*
G04 Copper Areas: 5*
%FSLAX45Y45*%
%MOMM*%
%ADD10C,0.2032*%
%ADD11C,0.254*%
%ADD12R,1.8X1.8*%
%ADD13C,1.8*%
%ADD14C,0.61*%
%ADD15C,0.4211*%
G75*


G04 Copper Start*
G36*
G01X1028700Y-810514D02*
G01X3113786Y-810514D01*
G01X3113786Y-1881886D01*
G01X899414Y-1881886D01*
G01X899414Y-1621907D01*
G01X987956Y-1621907D01*
G01X987956Y-1801906D01*
G01X989709Y-1812973D01*
G01X994796Y-1822957D01*
G01X1002719Y-1830880D01*
G01X1012703Y-1835967D01*
G01X1023770Y-1837720D01*
G01X1203770Y-1837720D01*
G01X1203770Y-1837720D01*
G01X1214837Y-1835967D01*
G01X1224820Y-1830880D01*
G01X1232744Y-1822957D01*
G01X1237831Y-1812973D01*
G01X1239584Y-1801906D01*
G01X1239584Y-1711906D01*
G01X1241956Y-1711906D01*
G01X1243867Y-1733754D01*
G01X1249543Y-1754937D01*
G01X1258812Y-1774813D01*
G01X1271391Y-1792778D01*
G01X1286898Y-1808285D01*
G01X1304863Y-1820864D01*
G01X1324739Y-1830133D01*
G01X1345922Y-1835809D01*
G01X1367770Y-1837720D01*
G01X1389617Y-1835809D01*
G01X1410801Y-1830133D01*
G01X1430677Y-1820864D01*
G01X1448641Y-1808285D01*
G01X1464149Y-1792778D01*
G01X1476728Y-1774813D01*
G01X1485996Y-1754937D01*
G01X1491672Y-1733754D01*
G01X1493584Y-1711906D01*
G01X1495956Y-1711906D01*
G01X1497867Y-1733754D01*
G01X1503543Y-1754937D01*
G01X1512812Y-1774813D01*
G01X1525391Y-1792778D01*
G01X1540898Y-1808285D01*
G01X1558863Y-1820864D01*
G01X1578739Y-1830133D01*
G01X1599922Y-1835809D01*
G01X1621770Y-1837720D01*
G01X1643617Y-1835809D01*
G01X1664801Y-1830133D01*
G01X1684677Y-1820864D01*
G01X1702641Y-1808285D01*
G01X1718149Y-1792778D01*
G01X1730728Y-1774813D01*
G01X1739996Y-1754937D01*
G01X1745672Y-1733754D01*
G01X1747584Y-1711906D01*
G01X1749956Y-1711906D01*
G01X1751867Y-1733754D01*
G01X1757543Y-1754937D01*
G01X1766812Y-1774813D01*
G01X1779391Y-1792778D01*
G01X1794898Y-1808285D01*
G01X1812863Y-1820864D01*
G01X1832739Y-1830133D01*
G01X1853922Y-1835809D01*
G01X1875770Y-1837720D01*
G01X1897617Y-1835809D01*
G01X1918801Y-1830133D01*
G01X1938677Y-1820864D01*
G01X1956641Y-1808285D01*
G01X1972149Y-1792778D01*
G01X1984728Y-1774813D01*
G01X1993996Y-1754937D01*
G01X1999672Y-1733754D01*
G01X2001584Y-1711906D01*
G01X2003956Y-1711906D01*
G01X2005867Y-1733754D01*
G01X2011543Y-1754937D01*
G01X2020812Y-1774813D01*
G01X2033391Y-1792778D01*
G01X2048898Y-1808285D01*
G01X2066863Y-1820864D01*
G01X2086739Y-1830133D01*
G01X2107922Y-1835809D01*
G01X2129770Y-1837720D01*
G01X2151617Y-1835809D01*
G01X2172801Y-1830133D01*
G01X2192677Y-1820864D01*
G01X2210641Y-1808285D01*
G01X2226149Y-1792778D01*
G01X2238728Y-1774813D01*
G01X2247996Y-1754937D01*
G01X2253672Y-1733754D01*
G01X2255584Y-1711906D01*
G01X2257956Y-1711906D01*
G01X2259867Y-1733754D01*
G01X2265543Y-1754937D01*
G01X2274812Y-1774813D01*
G01X2287391Y-1792778D01*
G01X2302898Y-1808285D01*
G01X2320863Y-1820864D01*
G01X2340739Y-1830133D01*
G01X2361922Y-1835809D01*
G01X2383770Y-1837720D01*
G01X2405617Y-1835809D01*
G01X2426801Y-1830133D01*
G01X2446677Y-1820864D01*
G01X2464641Y-1808285D01*
G01X2480149Y-1792778D01*
G01X2492728Y-1774813D01*
G01X2501996Y-1754937D01*
G01X2507672Y-1733754D01*
G01X2509584Y-1711906D01*
G01X2511956Y-1711906D01*
G01X2513867Y-1733754D01*
G01X2519543Y-1754937D01*
G01X2528812Y-1774813D01*
G01X2541391Y-1792778D01*
G01X2556898Y-1808285D01*
G01X2574863Y-1820864D01*
G01X2594739Y-1830133D01*
G01X2615922Y-1835809D01*
G01X2637770Y-1837720D01*
G01X2659617Y-1835809D01*
G01X2680801Y-1830133D01*
G01X2700677Y-1820864D01*
G01X2718641Y-1808285D01*
G01X2734149Y-1792778D01*
G01X2746728Y-1774813D01*
G01X2755996Y-1754937D01*
G01X2761672Y-1733754D01*
G01X2763584Y-1711906D01*
G01X2765956Y-1711906D01*
G01X2767867Y-1733754D01*
G01X2773543Y-1754937D01*
G01X2782812Y-1774813D01*
G01X2795391Y-1792778D01*
G01X2810898Y-1808285D01*
G01X2828863Y-1820864D01*
G01X2848739Y-1830133D01*
G01X2869922Y-1835809D01*
G01X2891770Y-1837720D01*
G01X2913617Y-1835809D01*
G01X2934801Y-1830133D01*
G01X2954677Y-1820864D01*
G01X2972641Y-1808285D01*
G01X2988149Y-1792778D01*
G01X3000728Y-1774813D01*
G01X3009996Y-1754937D01*
G01X3015672Y-1733754D01*
G01X3017584Y-1711906D01*
G01X3015672Y-1690059D01*
G01X3009996Y-1668876D01*
G01X3000728Y-1648999D01*
G01X2988149Y-1631035D01*
G01X2972641Y-1615527D01*
G01X2954677Y-1602948D01*
G01X2934801Y-1593680D01*
G01X2913617Y-1588004D01*
G01X2891770Y-1586093D01*
G01X2869922Y-1588004D01*
G01X2848739Y-1593680D01*
G01X2828863Y-1602948D01*
G01X2810898Y-1615527D01*
G01X2795391Y-1631035D01*
G01X2782812Y-1648999D01*
G01X2773543Y-1668876D01*
G01X2767867Y-1690059D01*
G01X2765956Y-1711906D01*
G01X2765956Y-1711906D01*
G01X2763584Y-1711906D01*
G01X2761672Y-1690059D01*
G01X2755996Y-1668876D01*
G01X2746728Y-1648999D01*
G01X2734149Y-1631035D01*
G01X2718641Y-1615527D01*
G01X2700677Y-1602948D01*
G01X2680801Y-1593680D01*
G01X2659617Y-1588004D01*
G01X2637770Y-1586093D01*
G01X2615922Y-1588004D01*
G01X2594739Y-1593680D01*
G01X2574863Y-1602948D01*
G01X2556898Y-1615527D01*
G01X2541391Y-1631035D01*
G01X2528812Y-1648999D01*
G01X2519543Y-1668876D01*
G01X2513867Y-1690059D01*
G01X2511956Y-1711906D01*
G01X2511956Y-1711906D01*
G01X2509584Y-1711906D01*
G01X2507672Y-1690059D01*
G01X2501996Y-1668876D01*
G01X2492728Y-1648999D01*
G01X2480149Y-1631035D01*
G01X2464641Y-1615527D01*
G01X2446677Y-1602948D01*
G01X2426801Y-1593680D01*
G01X2405617Y-1588004D01*
G01X2383770Y-1586093D01*
G01X2361922Y-1588004D01*
G01X2340739Y-1593680D01*
G01X2320863Y-1602948D01*
G01X2302898Y-1615527D01*
G01X2287391Y-1631035D01*
G01X2274812Y-1648999D01*
G01X2265543Y-1668876D01*
G01X2259867Y-1690059D01*
G01X2257956Y-1711906D01*
G01X2257956Y-1711906D01*
G01X2255584Y-1711906D01*
G01X2253672Y-1690059D01*
G01X2247996Y-1668876D01*
G01X2238728Y-1648999D01*
G01X2226149Y-1631035D01*
G01X2210641Y-1615527D01*
G01X2192677Y-1602948D01*
G01X2172801Y-1593680D01*
G01X2151617Y-1588004D01*
G01X2129770Y-1586093D01*
G01X2107922Y-1588004D01*
G01X2086739Y-1593680D01*
G01X2066863Y-1602948D01*
G01X2048898Y-1615527D01*
G01X2033391Y-1631035D01*
G01X2020812Y-1648999D01*
G01X2011543Y-1668876D01*
G01X2005867Y-1690059D01*
G01X2003956Y-1711906D01*
G01X2003956Y-1711906D01*
G01X2001584Y-1711906D01*
G01X1999672Y-1690059D01*
G01X1993996Y-1668876D01*
G01X1984728Y-1648999D01*
G01X1972149Y-1631035D01*
G01X1956641Y-1615527D01*
G01X1938677Y-1602948D01*
G01X1918801Y-1593680D01*
G01X1897617Y-1588004D01*
G01X1875770Y-1586093D01*
G01X1853922Y-1588004D01*
G01X1832739Y-1593680D01*
G01X1812863Y-1602948D01*
G01X1794898Y-1615527D01*
G01X1779391Y-1631035D01*
G01X1766812Y-1648999D01*
G01X1757543Y-1668876D01*
G01X1751867Y-1690059D01*
G01X1749956Y-1711906D01*
G01X1749956Y-1711906D01*
G01X1747584Y-1711906D01*
G01X1745672Y-1690059D01*
G01X1739996Y-1668876D01*
G01X1730728Y-1648999D01*
G01X1718149Y-1631035D01*
G01X1702641Y-1615527D01*
G01X1684677Y-1602948D01*
G01X1664801Y-1593680D01*
G01X1643617Y-1588004D01*
G01X1621770Y-1586093D01*
G01X1599922Y-1588004D01*
G01X1578739Y-1593680D01*
G01X1558863Y-1602948D01*
G01X1540898Y-1615527D01*
G01X1525391Y-1631035D01*
G01X1512812Y-1648999D01*
G01X1503543Y-1668876D01*
G01X1497867Y-1690059D01*
G01X1495956Y-1711906D01*
G01X1495956Y-1711906D01*
G01X1493584Y-1711906D01*
G01X1491672Y-1690059D01*
G01X1485996Y-1668876D01*
G01X1476728Y-1648999D01*
G01X1464149Y-1631035D01*
G01X1448641Y-1615527D01*
G01X1430677Y-1602948D01*
G01X1410801Y-1593680D01*
G01X1389617Y-1588004D01*
G01X1367770Y-1586093D01*
G01X1345922Y-1588004D01*
G01X1324739Y-1593680D01*
G01X1304863Y-1602948D01*
G01X1286898Y-1615527D01*
G01X1271391Y-1631035D01*
G01X1258812Y-1648999D01*
G01X1249543Y-1668876D01*
G01X1243867Y-1690059D01*
G01X1241956Y-1711906D01*
G01X1241956Y-1711906D01*
G01X1239584Y-1711906D01*
G01X1239584Y-1621907D01*
G01X1237831Y-1610839D01*
G01X1232744Y-1600856D01*
G01X1224820Y-1592932D01*
G01X1214837Y-1587845D01*
G01X1203770Y-1586093D01*
G01X1023770Y-1586093D01*
G01X1012703Y-1587845D01*
G01X1002719Y-1592932D01*
G01X994796Y-1600856D01*
G01X989709Y-1610839D01*
G01X987956Y-1621907D01*
G01X899414Y-1621907D01*
G01X899414Y-939800D01*
G01X901378Y-917350D01*
G01X907211Y-895582D01*
G01X916735Y-875157D01*
G01X929661Y-856697D01*
G01X945597Y-840761D01*
G01X964057Y-827835D01*
G01X984482Y-818311D01*
G01X1006250Y-812478D01*
G01X1028700Y-810514D01*
G37*
G54D10*
G01X1028700Y-810514D02*
G01X3113786Y-810514D01*
G01X3113786Y-1881886D01*
G01X899414Y-1881886D01*
G01X899414Y-939800D01*
G02X1028700Y-810514I129286J0D01*
G01X1203770Y-1837720D02*
G03X1239584Y-1801906I0J35814D01*
G01X1239584Y-1621907D01*
G03X1203770Y-1586093I-35814J0D01*
G01X1023770Y-1586093D01*
G03X987956Y-1621907I0J-35814D01*
G01X987956Y-1801906D01*
G03X1023770Y-1837720I35814J0D01*
G01X1203770Y-1837720D01*
G01X1241956Y-1711906D02*
G03X1493584Y-1711906I125814J0D01*
G03X1241956Y-1711906I-125814J0D01*
G01X1495956Y-1711906D02*
G03X1747584Y-1711906I125814J0D01*
G03X1495956Y-1711906I-125814J0D01*
G01X1749956Y-1711906D02*
G03X2001584Y-1711906I125814J0D01*
G03X1749956Y-1711906I-125814J0D01*
G01X2003956Y-1711906D02*
G03X2255584Y-1711906I125814J0D01*
G03X2003956Y-1711906I-125814J0D01*
G01X2257956Y-1711906D02*
G03X2509584Y-1711906I125814J0D01*
G03X2257956Y-1711906I-125814J0D01*
G01X2511956Y-1711906D02*
G03X2763584Y-1711906I125814J0D01*
G03X2511956Y-1711906I-125814J0D01*
G01X2765956Y-1711906D02*
G03X3017584Y-1711906I125814J0D01*
G03X2765956Y-1711906I-125814J0D01*
G54D11*
G01X2891770Y-1711906D02*
G01X2776116Y-1711906D01*
G01X2891770Y-1711906D02*
G01X3007424Y-1711906D01*
G01X2891770Y-1711906D02*
G01X2891770Y-1596253D01*
G01X2891770Y-1711906D02*
G01X2891770Y-1827560D01*
G04 Copper End*

G04 Pad Start*
G54D12*
G01X1113770Y-1711906D03*
G54D13*
G01X1367770Y-1711906D03*
G01X1621770Y-1711906D03*
G01X1875770Y-1711906D03*
G01X2129770Y-1711906D03*
G01X2383770Y-1711906D03*
G01X2637770Y-1711906D03*
G01X2891770Y-1711906D03*
G04 Pad End*

G04 Via Start*
G54D14*
G01X2159000Y-927100D03*
G01X2425700Y-1092200D03*
G04 Via End*

M02*

