G04 Layer: BottomSilkscreenLayer*
G04 EasyEDA Pro v3.2.148, 2026-08-31 06:39:05*
G04 Gerber Generator version 0.3*
G04 Scale: 100 percent, Rotated: No, Reflected: No*
G04 Dimensions in millimeters*
G04 Leading zeros omitted, absolute positions, 4 integers and 5 decimals*
G04 Generated by one-click*
G04 Object Configs: Pad,Via,Track,Text,Image,Dimension,BoardOutline,BoardCutout,CopperFilled,SolidRegion,FPCStiffener,Line,PlaneZone,ComponentProperty,ComponentSilkscreen,TearDrop*
G04 Layer Configs: 1,2,3,4,5,6,7,8,9,10,11,13,14,56*
G04 Copper Areas: 0*
%FSLAX45Y45*%
%MOMM*%
%ADD10C,0.2032*%
%ADD11C,0.9970*%
G75*


G04 Text Start*
G54D10*
G01X1183640Y-1328420D02*
G01X1112520Y-1515110D01*
G01X1041400Y-1328420D02*
G01X1112520Y-1515110D01*
G01X1428750Y-1372870D02*
G01X1428750Y-1363980D01*
G01X1419860Y-1346200D01*
G01X1410970Y-1337310D01*
G01X1393190Y-1328420D01*
G01X1357630Y-1328420D01*
G01X1339850Y-1337310D01*
G01X1330960Y-1346200D01*
G01X1322070Y-1363980D01*
G01X1322070Y-1381760D01*
G01X1330960Y-1399540D01*
G01X1348740Y-1426210D01*
G01X1437640Y-1515110D01*
G01X1313180Y-1515110D01*
G01X1673860Y-1328420D02*
G01X1576070Y-1328420D01*
G01X1629410Y-1399540D01*
G01X1602740Y-1399540D01*
G01X1584960Y-1408430D01*
G01X1576070Y-1417320D01*
G01X1567180Y-1443990D01*
G01X1567180Y-1461770D01*
G01X1576070Y-1488440D01*
G01X1593850Y-1506220D01*
G01X1620520Y-1515110D01*
G01X1647190Y-1515110D01*
G01X1673860Y-1506220D01*
G01X1682750Y-1497330D01*
G01X1691640Y-1479550D01*
G01X1869440Y-1328420D02*
G01X1958340Y-1452880D01*
G01X1824990Y-1452880D01*
G01X1869440Y-1328420D02*
G01X1869440Y-1515110D01*
G01X2080260Y-1328420D02*
G01X2169160Y-1328420D01*
G01X2178050Y-1408430D01*
G01X2169160Y-1399540D01*
G01X2142490Y-1390650D01*
G01X2115820Y-1390650D01*
G01X2089150Y-1399540D01*
G01X2071370Y-1417320D01*
G01X2062480Y-1443990D01*
G01X2062480Y-1461770D01*
G01X2071370Y-1488440D01*
G01X2089150Y-1506220D01*
G01X2115820Y-1515110D01*
G01X2142490Y-1515110D01*
G01X2169160Y-1506220D01*
G01X2178050Y-1497330D01*
G01X2186940Y-1479550D01*
G01X2346960Y-1355090D02*
G01X2355850Y-1337310D01*
G01X2382520Y-1328420D01*
G01X2400300Y-1328420D01*
G01X2426970Y-1337310D01*
G01X2444750Y-1363980D01*
G01X2453640Y-1408430D01*
G01X2453640Y-1452880D01*
G01X2444750Y-1488440D01*
G01X2426970Y-1506220D01*
G01X2400300Y-1515110D01*
G01X2391410Y-1515110D01*
G01X2364740Y-1506220D01*
G01X2346960Y-1488440D01*
G01X2338070Y-1461770D01*
G01X2338070Y-1452880D01*
G01X2346960Y-1426210D01*
G01X2364740Y-1408430D01*
G01X2391410Y-1399540D01*
G01X2400300Y-1399540D01*
G01X2426970Y-1408430D01*
G01X2444750Y-1426210D01*
G01X2453640Y-1452880D01*
G01X2583180Y-1328420D02*
G01X2672080Y-1515110D01*
G01X2707640Y-1328420D02*
G01X2583180Y-1328420D01*
G01X2828290Y-1372870D02*
G01X2837180Y-1355090D01*
G01X2854960Y-1337310D01*
G01X2872740Y-1328420D01*
G01X2908300Y-1328420D01*
G01X2926080Y-1337310D01*
G01X2943860Y-1355090D01*
G01X2952750Y-1372870D01*
G01X2961640Y-1399540D01*
G01X2961640Y-1443990D01*
G01X2952750Y-1470660D01*
G01X2943860Y-1488440D01*
G01X2926080Y-1506220D01*
G01X2908300Y-1515110D01*
G01X2872740Y-1515110D01*
G01X2854960Y-1506220D01*
G01X2837180Y-1488440D01*
G01X2828290Y-1470660D01*
G01X2828290Y-1443990D01*
G01X2872740Y-1443990D02*
G01X2828290Y-1443990D01*
G04 Text End*

M02*

